<?xml version="1.0" encoding="utf-8" standalone="no"?>
<!DOCTYPE svg PUBLIC "-//W3C//DTD SVG 1.1//EN"
  "http://www.w3.org/Graphics/SVG/1.1/DTD/svg11.dtd">
<svg xmlns:xlink="http://www.w3.org/1999/xlink" width="714.085781pt" height="713.864813pt" viewBox="0 0 714.085781 713.864813" xmlns="http://www.w3.org/2000/svg" version="1.1">
 <metadata>
  <rdf:RDF xmlns:dc="http://purl.org/dc/elements/1.1/" xmlns:cc="http://creativecommons.org/ns#" xmlns:rdf="http://www.w3.org/1999/02/22-rdf-syntax-ns#">
   <cc:Work>
    <dc:type rdf:resource="http://purl.org/dc/dcmitype/StillImage"/>
    <dc:date>2025-01-15T15:37:41.698995</dc:date>
    <dc:format>image/svg+xml</dc:format>
    <dc:creator>
     <cc:Agent>
      <dc:title>Matplotlib v3.5.2, https://matplotlib.org/</dc:title>
     </cc:Agent>
    </dc:creator>
   </cc:Work>
  </rdf:RDF>
 </metadata>
 <defs>
  <style type="text/css">*{stroke-linejoin: round; stroke-linecap: butt}</style>
 </defs>
 <g id="figure_1">
  <g id="patch_1">
   <path d="M 0 713.864813 
L 714.085781 713.864813 
L 714.085781 0 
L 0 0 
L 0 713.864813 
z
" style="fill: none"/>
  </g>
  <g id="axes_1">
   <g id="patch_2">
    <path d="M 90.485781 337.029187 
L 706.885781 337.029187 
L 706.885781 29.880882 
L 90.485781 29.880882 
z
" style="fill: #ffffff"/>
   </g>
   <g id="patch_3">
    <path d="M 244.585781 273.884462 
L 244.585781 273.884462 
L 244.585781 273.884462 
L 244.585781 273.884462 
z
" clip-path="url(#p56446feb7f)" style="fill: #3274a1; stroke: #3f3f3f; stroke-width: 0.75; stroke-linejoin: miter"/>
   </g>
   <g id="PolyCollection_1">
    <defs>
     <path id="ma1fa065192" d="M 183.167313 -532.867515 
L 182.724249 -532.867515 
L 182.662252 -533.921941 
L 182.588597 -534.976366 
L 182.502827 -536.030792 
L 182.404969 -537.085218 
L 182.295618 -538.139643 
L 182.175992 -539.194069 
L 182.04793 -540.248495 
L 181.913817 -541.30292 
L 181.77645 -542.357346 
L 181.638824 -543.411772 
L 181.503865 -544.466197 
L 181.374119 -545.520623 
L 181.25144 -546.575049 
L 181.136696 -547.629474 
L 181.029535 -548.6839 
L 180.928244 -549.738326 
L 180.829721 -550.792751 
L 180.729574 -551.847177 
L 180.622343 -552.901603 
L 180.501819 -553.956028 
L 180.361448 -555.010454 
L 180.194756 -556.06488 
L 179.995775 -557.119305 
L 179.759402 -558.173731 
L 179.48169 -559.228157 
L 179.160026 -560.282583 
L 178.793212 -561.337008 
L 178.381446 -562.391434 
L 177.926248 -563.44586 
L 177.430348 -564.500285 
L 176.897575 -565.554711 
L 176.332783 -566.609137 
L 175.741816 -567.663562 
L 175.131524 -568.717988 
L 174.509801 -569.772414 
L 173.885626 -570.826839 
L 173.269054 -571.881265 
L 172.67113 -572.935691 
L 172.103674 -573.990116 
L 171.578936 -575.044542 
L 171.109101 -576.098968 
L 170.705681 -577.153393 
L 170.378829 -578.207819 
L 170.136634 -579.262245 
L 169.984465 -580.31667 
L 169.924432 -581.371096 
L 169.955024 -582.425522 
L 170.070953 -583.479947 
L 170.263239 -584.534373 
L 170.519505 -585.588799 
L 170.824455 -586.643224 
L 171.160474 -587.69765 
L 171.508274 -588.752076 
L 171.847501 -589.806501 
L 172.157237 -590.860927 
L 172.416322 -591.915353 
L 172.603476 -592.969778 
L 172.697198 -594.024204 
L 172.675491 -595.07863 
L 172.515466 -596.133055 
L 172.192929 -597.187481 
L 171.682085 -598.241907 
L 170.955492 -599.296332 
L 169.984418 -600.350758 
L 168.739729 -601.405184 
L 167.193404 -602.459609 
L 165.320711 -603.514035 
L 163.103019 -604.568461 
L 160.531091 -605.622886 
L 157.608655 -606.677312 
L 154.355895 -607.731738 
L 150.812469 -608.786163 
L 147.039602 -609.840589 
L 143.120797 -610.895015 
L 139.160802 -611.94944 
L 135.282582 -613.003866 
L 131.622253 -614.058292 
L 128.322159 -615.112718 
L 125.522514 -616.167143 
L 123.352272 -617.221569 
L 121.920018 -618.275995 
L 121.305781 -619.33042 
L 121.554615 -620.384846 
L 122.67265 -621.439272 
L 124.626077 -622.493697 
L 127.343221 -623.548123 
L 130.719506 -624.602549 
L 134.624825 -625.656974 
L 138.912563 -626.7114 
L 143.429372 -627.765826 
L 148.024786 -628.820251 
L 152.55981 -629.874677 
L 156.913826 -630.929103 
L 160.989375 -631.983528 
L 164.714655 -633.037954 
L 168.043826 -634.09238 
L 170.955406 -635.146805 
L 173.44922 -636.201231 
L 175.542399 -637.255657 
L 190.349163 -637.255657 
L 190.349163 -637.255657 
L 192.442342 -636.201231 
L 194.936157 -635.146805 
L 197.847737 -634.09238 
L 201.176908 -633.037954 
L 204.902188 -631.983528 
L 208.977736 -630.929103 
L 213.331752 -629.874677 
L 217.866776 -628.820251 
L 222.46219 -627.765826 
L 226.978999 -626.7114 
L 231.266737 -625.656974 
L 235.172057 -624.602549 
L 238.548342 -623.548123 
L 241.265486 -622.493697 
L 243.218913 -621.439272 
L 244.336947 -620.384846 
L 244.585781 -619.33042 
L 243.971544 -618.275995 
L 242.53929 -617.221569 
L 240.369048 -616.167143 
L 237.569404 -615.112718 
L 234.269309 -614.058292 
L 230.608981 -613.003866 
L 226.73076 -611.94944 
L 222.770765 -610.895015 
L 218.85196 -609.840589 
L 215.079093 -608.786163 
L 211.535667 -607.731738 
L 208.282907 -606.677312 
L 205.360471 -605.622886 
L 202.788544 -604.568461 
L 200.570851 -603.514035 
L 198.698159 -602.459609 
L 197.151834 -601.405184 
L 195.907145 -600.350758 
L 194.936071 -599.296332 
L 194.209478 -598.241907 
L 193.698634 -597.187481 
L 193.376096 -596.133055 
L 193.216071 -595.07863 
L 193.194364 -594.024204 
L 193.288086 -592.969778 
L 193.47524 -591.915353 
L 193.734326 -590.860927 
L 194.044062 -589.806501 
L 194.383289 -588.752076 
L 194.731088 -587.69765 
L 195.067107 -586.643224 
L 195.372057 -585.588799 
L 195.628323 -584.534373 
L 195.820609 -583.479947 
L 195.936539 -582.425522 
L 195.96713 -581.371096 
L 195.907098 -580.31667 
L 195.754929 -579.262245 
L 195.512734 -578.207819 
L 195.185882 -577.153393 
L 194.782461 -576.098968 
L 194.312626 -575.044542 
L 193.787888 -573.990116 
L 193.220433 -572.935691 
L 192.622509 -571.881265 
L 192.005937 -570.826839 
L 191.381762 -569.772414 
L 190.760039 -568.717988 
L 190.149747 -567.663562 
L 189.55878 -566.609137 
L 188.993988 -565.554711 
L 188.461214 -564.500285 
L 187.965314 -563.44586 
L 187.510117 -562.391434 
L 187.098351 -561.337008 
L 186.731537 -560.282583 
L 186.409873 -559.228157 
L 186.132161 -558.173731 
L 185.895788 -557.119305 
L 185.696806 -556.06488 
L 185.530115 -555.010454 
L 185.389744 -553.956028 
L 185.26922 -552.901603 
L 185.161988 -551.847177 
L 185.061842 -550.792751 
L 184.963319 -549.738326 
L 184.862028 -548.6839 
L 184.754867 -547.629474 
L 184.640123 -546.575049 
L 184.517444 -545.520623 
L 184.387698 -544.466197 
L 184.252738 -543.411772 
L 184.115112 -542.357346 
L 183.977745 -541.30292 
L 183.843633 -540.248495 
L 183.71557 -539.194069 
L 183.595945 -538.139643 
L 183.486594 -537.085218 
L 183.388735 -536.030792 
L 183.302966 -534.976366 
L 183.229311 -533.921941 
L 183.167313 -532.867515 
z
" style="stroke: #3f3f3f; stroke-width: 1.5"/>
    </defs>
    <g clip-path="url(#p56446feb7f)">
     <use xlink:href="#ma1fa065192" x="0" y="713.864813" style="fill: #332288; stroke: #3f3f3f; stroke-width: 1.5"/>
    </g>
   </g>
   <g id="patch_4">
    <path d="M 244.585781 273.884462 
L 244.585781 273.884462 
L 244.585781 273.884462 
L 244.585781 273.884462 
z
" clip-path="url(#p56446feb7f)" style="fill: #e1812c; stroke: #3f3f3f; stroke-width: 0.75; stroke-linejoin: miter"/>
   </g>
   <g id="PolyCollection_2">
    <defs>
     <path id="m9135f56ec9" d="M 306.387827 -482.348441 
L 306.063735 -482.348441 
L 306.01246 -483.983796 
L 305.949942 -485.619152 
L 305.875357 -487.254507 
L 305.788308 -488.889862 
L 305.688941 -490.525218 
L 305.578035 -492.160573 
L 305.457045 -493.795928 
L 305.328102 -495.431284 
L 305.193945 -497.066639 
L 305.05781 -498.701994 
L 304.923269 -500.33735 
L 304.794041 -501.972705 
L 304.673796 -503.60806 
L 304.565957 -505.243416 
L 304.473535 -506.878771 
L 304.398982 -508.514126 
L 304.344078 -510.149482 
L 304.309839 -511.784837 
L 304.296446 -513.420193 
L 304.303184 -515.055548 
L 304.328381 -516.690903 
L 304.369365 -518.326259 
L 304.422445 -519.961614 
L 304.482924 -521.596969 
L 304.54518 -523.232325 
L 304.602819 -524.86768 
L 304.648923 -526.503035 
L 304.67638 -528.138391 
L 304.678297 -529.773746 
L 304.648454 -531.409101 
L 304.581774 -533.044457 
L 304.474743 -534.679812 
L 304.325738 -536.315167 
L 304.135214 -537.950523 
L 303.905714 -539.585878 
L 303.641676 -541.221234 
L 303.34905 -542.856589 
L 303.034755 -544.491944 
L 302.706019 -546.1273 
L 302.369693 -547.762655 
L 302.0316 -549.39801 
L 301.696018 -551.033366 
L 301.365354 -552.668721 
L 301.040047 -554.304076 
L 300.718705 -555.939432 
L 300.39845 -557.574787 
L 300.075401 -559.210142 
L 299.745214 -560.845498 
L 299.40359 -562.480853 
L 299.046666 -564.116208 
L 298.671245 -565.751564 
L 298.274829 -567.386919 
L 297.855483 -569.022275 
L 297.411585 -570.65763 
L 296.9415 -572.292985 
L 296.443289 -573.928341 
L 295.914464 -575.563696 
L 295.351861 -577.199051 
L 294.751588 -578.834407 
L 294.109058 -580.469762 
L 293.419031 -582.105117 
L 292.67564 -583.740473 
L 291.872374 -585.375828 
L 291.002043 -587.011183 
L 290.056771 -588.646539 
L 289.028128 -590.281894 
L 287.907517 -591.91725 
L 286.686933 -593.552605 
L 285.360167 -595.18796 
L 283.924457 -596.823316 
L 282.382513 -598.458671 
L 280.744709 -600.094026 
L 279.031166 -601.729382 
L 277.273373 -603.364737 
L 275.514996 -605.000092 
L 273.811521 -606.635448 
L 272.228545 -608.270803 
L 270.838619 -609.906158 
L 269.716788 -611.541514 
L 268.935145 -613.176869 
L 268.556909 -614.812224 
L 268.630652 -616.44758 
L 269.18535 -618.082935 
L 270.226875 -619.718291 
L 271.736405 -621.353646 
L 273.671007 -622.989001 
L 275.966383 -624.624357 
L 278.541484 -626.259712 
L 281.304505 -627.895067 
L 284.159568 -629.530423 
L 287.013386 -631.165778 
L 289.781213 -632.801133 
L 292.391543 -634.436489 
L 294.789206 -636.071844 
L 296.936745 -637.707199 
L 298.814147 -639.342555 
L 300.417227 -640.97791 
L 301.755021 -642.613265 
L 302.846626 -644.248621 
L 309.604936 -644.248621 
L 309.604936 -644.248621 
L 310.696541 -642.613265 
L 312.034335 -640.97791 
L 313.637416 -639.342555 
L 315.514818 -637.707199 
L 317.662356 -636.071844 
L 320.06002 -634.436489 
L 322.67035 -632.801133 
L 325.438176 -631.165778 
L 328.291995 -629.530423 
L 331.147058 -627.895067 
L 333.910079 -626.259712 
L 336.48518 -624.624357 
L 338.780555 -622.989001 
L 340.715158 -621.353646 
L 342.224688 -619.718291 
L 343.266212 -618.082935 
L 343.82091 -616.44758 
L 343.894653 -614.812224 
L 343.516417 -613.176869 
L 342.734774 -611.541514 
L 341.612943 -609.906158 
L 340.223018 -608.270803 
L 338.640042 -606.635448 
L 336.936567 -605.000092 
L 335.178189 -603.364737 
L 333.420397 -601.729382 
L 331.706853 -600.094026 
L 330.06905 -598.458671 
L 328.527106 -596.823316 
L 327.091396 -595.18796 
L 325.764629 -593.552605 
L 324.544046 -591.91725 
L 323.423435 -590.281894 
L 322.394791 -588.646539 
L 321.449519 -587.011183 
L 320.579188 -585.375828 
L 319.775923 -583.740473 
L 319.032531 -582.105117 
L 318.342504 -580.469762 
L 317.699975 -578.834407 
L 317.099702 -577.199051 
L 316.537098 -575.563696 
L 316.008274 -573.928341 
L 315.510062 -572.292985 
L 315.039978 -570.65763 
L 314.596079 -569.022275 
L 314.176734 -567.386919 
L 313.780317 -565.751564 
L 313.404896 -564.116208 
L 313.047973 -562.480853 
L 312.706348 -560.845498 
L 312.376161 -559.210142 
L 312.053112 -557.574787 
L 311.732857 -555.939432 
L 311.411516 -554.304076 
L 311.086208 -552.668721 
L 310.755545 -551.033366 
L 310.419963 -549.39801 
L 310.081869 -547.762655 
L 309.745543 -546.1273 
L 309.416808 -544.491944 
L 309.102513 -542.856589 
L 308.809887 -541.221234 
L 308.545848 -539.585878 
L 308.316348 -537.950523 
L 308.125824 -536.315167 
L 307.976819 -534.679812 
L 307.869788 -533.044457 
L 307.803109 -531.409101 
L 307.773266 -529.773746 
L 307.775182 -528.138391 
L 307.802639 -526.503035 
L 307.848743 -524.86768 
L 307.906383 -523.232325 
L 307.968639 -521.596969 
L 308.029118 -519.961614 
L 308.082198 -518.326259 
L 308.123182 -516.690903 
L 308.148378 -515.055548 
L 308.155116 -513.420193 
L 308.141724 -511.784837 
L 308.107485 -510.149482 
L 308.05258 -508.514126 
L 307.978027 -506.878771 
L 307.885605 -505.243416 
L 307.777767 -503.60806 
L 307.657521 -501.972705 
L 307.528294 -500.33735 
L 307.393753 -498.701994 
L 307.257618 -497.066639 
L 307.123461 -495.431284 
L 306.994517 -493.795928 
L 306.873528 -492.160573 
L 306.762621 -490.525218 
L 306.663255 -488.889862 
L 306.576206 -487.254507 
L 306.501621 -485.619152 
L 306.439103 -483.983796 
L 306.387827 -482.348441 
z
" style="stroke: #3f3f3f; stroke-width: 1.5"/>
    </defs>
    <g clip-path="url(#p56446feb7f)">
     <use xlink:href="#m9135f56ec9" x="0" y="713.864813" style="fill: #88ccee; stroke: #3f3f3f; stroke-width: 1.5"/>
    </g>
   </g>
   <g id="PolyCollection_3">
    <defs>
     <path id="maebb113c9b" d="M 492.263172 -390.796912 
L 490.02839 -390.796912 
L 489.738793 -393.617374 
L 489.396439 -396.437836 
L 488.99807 -399.258298 
L 488.541947 -402.07876 
L 488.028251 -404.899222 
L 487.459439 -407.719684 
L 486.8405 -410.540146 
L 486.179075 -413.360608 
L 485.485406 -416.18107 
L 484.772087 -419.001532 
L 484.053599 -421.821994 
L 483.345655 -424.642456 
L 482.664362 -427.462918 
L 482.025253 -430.28338 
L 481.442258 -433.103842 
L 480.926692 -435.924303 
L 480.486319 -438.744765 
L 480.124606 -441.565227 
L 479.840207 -444.385689 
L 479.626749 -447.206151 
L 479.472938 -450.026613 
L 479.362992 -452.847075 
L 479.277389 -455.667537 
L 479.193865 -458.487999 
L 479.088612 -461.308461 
L 478.937582 -464.128923 
L 478.717825 -466.949385 
L 478.408768 -469.769847 
L 477.993349 -472.590309 
L 477.458967 -475.410771 
L 476.798166 -478.231233 
L 476.00905 -481.051694 
L 475.095399 -483.872156 
L 474.06649 -486.692618 
L 472.936633 -489.51308 
L 471.724462 -492.333542 
L 470.451992 -495.154004 
L 469.143503 -497.974466 
L 467.824295 -500.794928 
L 466.519373 -503.61539 
L 465.252123 -506.435852 
L 464.043059 -509.256314 
L 462.908715 -512.076776 
L 461.860747 -514.897238 
L 460.905336 -517.7177 
L 460.042923 -520.538162 
L 459.268332 -523.358624 
L 458.571276 -526.179085 
L 457.937233 -528.999547 
L 457.348627 -531.820009 
L 456.786228 -534.640471 
L 456.230656 -537.460933 
L 455.663862 -540.281395 
L 455.070455 -543.101857 
L 454.438743 -545.922319 
L 453.761416 -548.742781 
L 453.035798 -551.563243 
L 452.263668 -554.383705 
L 451.450691 -557.204167 
L 450.605545 -560.024629 
L 449.738866 -562.845091 
L 448.862167 -565.665553 
L 447.98686 -568.486015 
L 447.123549 -571.306476 
L 446.281663 -574.126938 
L 445.469511 -576.9474 
L 444.694731 -579.767862 
L 443.965091 -582.588324 
L 443.28951 -585.408786 
L 442.679143 -588.229248 
L 442.148345 -591.04971 
L 441.715341 -593.870172 
L 441.402437 -596.690634 
L 441.235662 -599.511096 
L 441.243811 -602.331558 
L 441.456905 -605.15202 
L 441.904175 -607.972482 
L 442.611756 -610.792944 
L 443.600296 -613.613406 
L 444.882723 -616.433867 
L 446.462414 -619.254329 
L 448.331967 -622.074791 
L 450.472718 -624.895253 
L 452.855071 -627.715715 
L 455.439639 -630.536177 
L 458.179096 -633.356639 
L 461.020576 -636.177101 
L 463.908417 -638.997563 
L 466.787011 -641.818025 
L 469.603531 -644.638487 
L 472.310323 -647.458949 
L 474.866813 -650.279411 
L 477.24081 -653.099873 
L 479.409184 -655.920335 
L 481.357921 -658.740797 
L 483.081633 -661.561258 
L 484.582631 -664.38172 
L 485.869686 -667.202182 
L 486.956618 -670.022644 
L 495.334945 -670.022644 
L 495.334945 -670.022644 
L 496.421877 -667.202182 
L 497.708932 -664.38172 
L 499.209929 -661.561258 
L 500.933641 -658.740797 
L 502.882378 -655.920335 
L 505.050753 -653.099873 
L 507.42475 -650.279411 
L 509.981239 -647.458949 
L 512.688032 -644.638487 
L 515.504551 -641.818025 
L 518.383145 -638.997563 
L 521.270986 -636.177101 
L 524.112466 -633.356639 
L 526.851923 -630.536177 
L 529.436492 -627.715715 
L 531.818845 -624.895253 
L 533.959595 -622.074791 
L 535.829149 -619.254329 
L 537.40884 -616.433867 
L 538.691266 -613.613406 
L 539.679806 -610.792944 
L 540.387388 -607.972482 
L 540.834658 -605.15202 
L 541.047751 -602.331558 
L 541.055901 -599.511096 
L 540.889126 -596.690634 
L 540.576221 -593.870172 
L 540.143217 -591.04971 
L 539.612419 -588.229248 
L 539.002052 -585.408786 
L 538.326472 -582.588324 
L 537.596832 -579.767862 
L 536.822051 -576.9474 
L 536.009899 -574.126938 
L 535.168014 -571.306476 
L 534.304702 -568.486015 
L 533.429396 -565.665553 
L 532.552696 -562.845091 
L 531.686018 -560.024629 
L 530.840872 -557.204167 
L 530.027894 -554.383705 
L 529.255764 -551.563243 
L 528.530146 -548.742781 
L 527.852819 -545.922319 
L 527.221107 -543.101857 
L 526.6277 -540.281395 
L 526.060907 -537.460933 
L 525.505335 -534.640471 
L 524.942935 -531.820009 
L 524.354329 -528.999547 
L 523.720287 -526.179085 
L 523.02323 -523.358624 
L 522.248639 -520.538162 
L 521.386226 -517.7177 
L 520.430815 -514.897238 
L 519.382848 -512.076776 
L 518.248503 -509.256314 
L 517.03944 -506.435852 
L 515.77219 -503.61539 
L 514.467268 -500.794928 
L 513.14806 -497.974466 
L 511.839571 -495.154004 
L 510.5671 -492.333542 
L 509.354929 -489.51308 
L 508.225073 -486.692618 
L 507.196163 -483.872156 
L 506.282513 -481.051694 
L 505.493397 -478.231233 
L 504.832596 -475.410771 
L 504.298213 -472.590309 
L 503.882795 -469.769847 
L 503.573737 -466.949385 
L 503.353981 -464.128923 
L 503.202951 -461.308461 
L 503.097697 -458.487999 
L 503.014174 -455.667537 
L 502.928571 -452.847075 
L 502.818625 -450.026613 
L 502.664813 -447.206151 
L 502.451355 -444.385689 
L 502.166957 -441.565227 
L 501.805244 -438.744765 
L 501.364871 -435.924303 
L 500.849304 -433.103842 
L 500.26631 -430.28338 
L 499.6272 -427.462918 
L 498.945907 -424.642456 
L 498.237964 -421.821994 
L 497.519476 -419.001532 
L 496.806156 -416.18107 
L 496.112488 -413.360608 
L 495.451063 -410.540146 
L 494.832124 -407.719684 
L 494.263312 -404.899222 
L 493.749616 -402.07876 
L 493.293493 -399.258298 
L 492.895124 -396.437836 
L 492.552769 -393.617374 
L 492.263172 -390.796912 
z
" style="stroke: #3f3f3f; stroke-width: 1.5"/>
    </defs>
    <g clip-path="url(#p56446feb7f)">
     <use xlink:href="#maebb113c9b" x="0" y="713.864813" style="fill: #882255; stroke: #3f3f3f; stroke-width: 1.5"/>
    </g>
   </g>
   <g id="PolyCollection_4">
    <defs>
     <path id="m94626cdaf1" d="M 615.755056 -394.973249 
L 613.096506 -394.973249 
L 612.722829 -397.710631 
L 612.274354 -400.448012 
L 611.745291 -403.185394 
L 611.132001 -405.922776 
L 610.433684 -408.660157 
L 609.653008 -411.397539 
L 608.796603 -414.13492 
L 607.875351 -416.872302 
L 606.904409 -419.609684 
L 605.902932 -422.347065 
L 604.893471 -425.084447 
L 603.901057 -427.821828 
L 602.952026 -430.55921 
L 602.072642 -433.296592 
L 601.287635 -436.033973 
L 600.618748 -438.771355 
L 600.08342 -441.508736 
L 599.693701 -444.246118 
L 599.45548 -446.9835 
L 599.368094 -449.720881 
L 599.424303 -452.458263 
L 599.610656 -455.195644 
L 599.908163 -457.933026 
L 600.293225 -460.670408 
L 600.738717 -463.407789 
L 601.215155 -466.145171 
L 601.691846 -468.882552 
L 602.137955 -471.619934 
L 602.523448 -474.357316 
L 602.819875 -477.094697 
L 603.000995 -479.832079 
L 603.043247 -482.56946 
L 602.926108 -485.306842 
L 602.632373 -488.044224 
L 602.148379 -490.781605 
L 601.464232 -493.518987 
L 600.574024 -496.256368 
L 599.47607 -498.99375 
L 598.173125 -501.731132 
L 596.672566 -504.468513 
L 594.986468 -507.205895 
L 593.131533 -509.943277 
L 591.128808 -512.680658 
L 589.003143 -515.41804 
L 586.782377 -518.155421 
L 584.496263 -520.892803 
L 582.175171 -523.630185 
L 579.84867 -526.367566 
L 577.544113 -529.104948 
L 575.285351 -531.842329 
L 573.091759 -534.579711 
L 570.97767 -537.317093 
L 568.952352 -540.054474 
L 567.020544 -542.791856 
L 565.183545 -545.529237 
L 563.440738 -548.266619 
L 561.791408 -551.004001 
L 560.236617 -553.741382 
L 558.780918 -556.478764 
L 557.433663 -559.216145 
L 556.209717 -561.953527 
L 555.12946 -564.690909 
L 554.218036 -567.42829 
L 553.503909 -570.165672 
L 553.01688 -572.903053 
L 552.785781 -575.640435 
L 552.836107 -578.377817 
L 553.187844 -581.115198 
L 553.853736 -583.85258 
L 554.83815 -586.589961 
L 556.136628 -589.327343 
L 557.736132 -592.064725 
L 559.61589 -594.802106 
L 561.748703 -597.539488 
L 564.102519 -600.276869 
L 566.642094 -603.014251 
L 569.33056 -605.751633 
L 572.130769 -608.489014 
L 575.006347 -611.226396 
L 577.922424 -613.963777 
L 580.846091 -616.701159 
L 583.746629 -619.438541 
L 586.595611 -622.175922 
L 589.366953 -624.913304 
L 592.036988 -627.650685 
L 594.584591 -630.388067 
L 596.991395 -633.125449 
L 599.242044 -635.86283 
L 601.324479 -638.600212 
L 603.230189 -641.337594 
L 604.954378 -644.074975 
L 606.496012 -646.812357 
L 607.857705 -649.549738 
L 609.045459 -652.28712 
L 610.068241 -655.024502 
L 610.937452 -657.761883 
L 611.666311 -660.499265 
L 612.269206 -663.236646 
L 612.761062 -665.974028 
L 616.090501 -665.974028 
L 616.090501 -665.974028 
L 616.582356 -663.236646 
L 617.185252 -660.499265 
L 617.91411 -657.761883 
L 618.783321 -655.024502 
L 619.806103 -652.28712 
L 620.993857 -649.549738 
L 622.355551 -646.812357 
L 623.897184 -644.074975 
L 625.621374 -641.337594 
L 627.527084 -638.600212 
L 629.609519 -635.86283 
L 631.860167 -633.125449 
L 634.266971 -630.388067 
L 636.814575 -627.650685 
L 639.484609 -624.913304 
L 642.255951 -622.175922 
L 645.104933 -619.438541 
L 648.005471 -616.701159 
L 650.929138 -613.963777 
L 653.845216 -611.226396 
L 656.720794 -608.489014 
L 659.521003 -605.751633 
L 662.209469 -603.014251 
L 664.749044 -600.276869 
L 667.10286 -597.539488 
L 669.235672 -594.802106 
L 671.115431 -592.064725 
L 672.714935 -589.327343 
L 674.013412 -586.589961 
L 674.997826 -583.85258 
L 675.663719 -581.115198 
L 676.015456 -578.377817 
L 676.065781 -575.640435 
L 675.834683 -572.903053 
L 675.347654 -570.165672 
L 674.633526 -567.42829 
L 673.722102 -564.690909 
L 672.641846 -561.953527 
L 671.4179 -559.216145 
L 670.070645 -556.478764 
L 668.614946 -553.741382 
L 667.060155 -551.004001 
L 665.410824 -548.266619 
L 663.668018 -545.529237 
L 661.831018 -542.791856 
L 659.899211 -540.054474 
L 657.873893 -537.317093 
L 655.759803 -534.579711 
L 653.566211 -531.842329 
L 651.30745 -529.104948 
L 649.002892 -526.367566 
L 646.676392 -523.630185 
L 644.355299 -520.892803 
L 642.069185 -518.155421 
L 639.84842 -515.41804 
L 637.722754 -512.680658 
L 635.720029 -509.943277 
L 633.865095 -507.205895 
L 632.178997 -504.468513 
L 630.678438 -501.731132 
L 629.375493 -498.99375 
L 628.277538 -496.256368 
L 627.387331 -493.518987 
L 626.703184 -490.781605 
L 626.21919 -488.044224 
L 625.925454 -485.306842 
L 625.808316 -482.56946 
L 625.850567 -479.832079 
L 626.031687 -477.094697 
L 626.328115 -474.357316 
L 626.713608 -471.619934 
L 627.159716 -468.882552 
L 627.636407 -466.145171 
L 628.112846 -463.407789 
L 628.558338 -460.670408 
L 628.943399 -457.933026 
L 629.240907 -455.195644 
L 629.42726 -452.458263 
L 629.483469 -449.720881 
L 629.396082 -446.9835 
L 629.157862 -444.246118 
L 628.768142 -441.508736 
L 628.232814 -438.771355 
L 627.563927 -436.033973 
L 626.77892 -433.296592 
L 625.899536 -430.55921 
L 624.950505 -427.821828 
L 623.958092 -425.084447 
L 622.948631 -422.347065 
L 621.947154 -419.609684 
L 620.976212 -416.872302 
L 620.054959 -414.13492 
L 619.198555 -411.397539 
L 618.417879 -408.660157 
L 617.719561 -405.922776 
L 617.106271 -403.185394 
L 616.577209 -400.448012 
L 616.128733 -397.710631 
L 615.755056 -394.973249 
z
" style="stroke: #3f3f3f; stroke-width: 1.5"/>
    </defs>
    <g clip-path="url(#p56446feb7f)">
     <use xlink:href="#m94626cdaf1" x="0" y="713.864813" style="fill: #cc6677; stroke: #3f3f3f; stroke-width: 1.5"/>
    </g>
   </g>
   <g id="matplotlib.axis_1">
    <g id="xtick_1">
     <g id="line2d_1">
      <defs>
       <path id="m7f14164ef3" d="M 0 0 
L 0 3.5 
" style="stroke: #000000; stroke-width: 0.8"/>
      </defs>
      <g>
       <use xlink:href="#m7f14164ef3" x="244.585781" y="337.029187" style="stroke: #000000; stroke-width: 0.8"/>
      </g>
     </g>
    </g>
    <g id="xtick_2">
     <g id="line2d_2">
      <g>
       <use xlink:href="#m7f14164ef3" x="552.785781" y="337.029187" style="stroke: #000000; stroke-width: 0.8"/>
      </g>
     </g>
    </g>
   </g>
   <g id="matplotlib.axis_2">
    <g id="ytick_1">
     <g id="line2d_3">
      <defs>
       <path id="me11de4e1f8" d="M 0 0 
L -3.5 0 
" style="stroke: #000000; stroke-width: 0.8"/>
      </defs>
      <g>
       <use xlink:href="#me11de4e1f8" x="90.485781" y="310.016188" style="stroke: #000000; stroke-width: 0.8"/>
      </g>
     </g>
     <g id="text_1">
      <!-- −0.2 -->
      <g transform="translate(32.491875 317.994547)scale(0.21 -0.21)">
       <defs>
        <path id="DejaVuSans-2212" d="M 678 2272 
L 4684 2272 
L 4684 1741 
L 678 1741 
L 678 2272 
z
" transform="scale(0.015625)"/>
        <path id="DejaVuSans-30" d="M 2034 4250 
Q 1547 4250 1301 3770 
Q 1056 3291 1056 2328 
Q 1056 1369 1301 889 
Q 1547 409 2034 409 
Q 2525 409 2770 889 
Q 3016 1369 3016 2328 
Q 3016 3291 2770 3770 
Q 2525 4250 2034 4250 
z
M 2034 4750 
Q 2819 4750 3233 4129 
Q 3647 3509 3647 2328 
Q 3647 1150 3233 529 
Q 2819 -91 2034 -91 
Q 1250 -91 836 529 
Q 422 1150 422 2328 
Q 422 3509 836 4129 
Q 1250 4750 2034 4750 
z
" transform="scale(0.015625)"/>
        <path id="DejaVuSans-2e" d="M 684 794 
L 1344 794 
L 1344 0 
L 684 0 
L 684 794 
z
" transform="scale(0.015625)"/>
        <path id="DejaVuSans-32" d="M 1228 531 
L 3431 531 
L 3431 0 
L 469 0 
L 469 531 
Q 828 903 1448 1529 
Q 2069 2156 2228 2338 
Q 2531 2678 2651 2914 
Q 2772 3150 2772 3378 
Q 2772 3750 2511 3984 
Q 2250 4219 1831 4219 
Q 1534 4219 1204 4116 
Q 875 4013 500 3803 
L 500 4441 
Q 881 4594 1212 4672 
Q 1544 4750 1819 4750 
Q 2544 4750 2975 4387 
Q 3406 4025 3406 3419 
Q 3406 3131 3298 2873 
Q 3191 2616 2906 2266 
Q 2828 2175 2409 1742 
Q 1991 1309 1228 531 
z
" transform="scale(0.015625)"/>
       </defs>
       <use xlink:href="#DejaVuSans-2212"/>
       <use xlink:href="#DejaVuSans-30" x="83.789062"/>
       <use xlink:href="#DejaVuSans-2e" x="147.412109"/>
       <use xlink:href="#DejaVuSans-32" x="179.199219"/>
      </g>
     </g>
    </g>
    <g id="ytick_2">
     <g id="line2d_4">
      <g>
       <use xlink:href="#me11de4e1f8" x="90.485781" y="273.884462" style="stroke: #000000; stroke-width: 0.8"/>
      </g>
     </g>
     <g id="text_2">
      <!-- 0.0 -->
      <g transform="translate(50.089219 281.862821)scale(0.21 -0.21)">
       <use xlink:href="#DejaVuSans-30"/>
       <use xlink:href="#DejaVuSans-2e" x="63.623047"/>
       <use xlink:href="#DejaVuSans-30" x="95.410156"/>
      </g>
     </g>
    </g>
    <g id="ytick_3">
     <g id="line2d_5">
      <g>
       <use xlink:href="#me11de4e1f8" x="90.485781" y="237.752736" style="stroke: #000000; stroke-width: 0.8"/>
      </g>
     </g>
     <g id="text_3">
      <!-- 0.2 -->
      <g transform="translate(50.089219 245.731095)scale(0.21 -0.21)">
       <use xlink:href="#DejaVuSans-30"/>
       <use xlink:href="#DejaVuSans-2e" x="63.623047"/>
       <use xlink:href="#DejaVuSans-32" x="95.410156"/>
      </g>
     </g>
    </g>
    <g id="ytick_4">
     <g id="line2d_6">
      <g>
       <use xlink:href="#me11de4e1f8" x="90.485781" y="201.62101" style="stroke: #000000; stroke-width: 0.8"/>
      </g>
     </g>
     <g id="text_4">
      <!-- 0.4 -->
      <g transform="translate(50.089219 209.59937)scale(0.21 -0.21)">
       <defs>
        <path id="DejaVuSans-34" d="M 2419 4116 
L 825 1625 
L 2419 1625 
L 2419 4116 
z
M 2253 4666 
L 3047 4666 
L 3047 1625 
L 3713 1625 
L 3713 1100 
L 3047 1100 
L 3047 0 
L 2419 0 
L 2419 1100 
L 313 1100 
L 313 1709 
L 2253 4666 
z
" transform="scale(0.015625)"/>
       </defs>
       <use xlink:href="#DejaVuSans-30"/>
       <use xlink:href="#DejaVuSans-2e" x="63.623047"/>
       <use xlink:href="#DejaVuSans-34" x="95.410156"/>
      </g>
     </g>
    </g>
    <g id="ytick_5">
     <g id="line2d_7">
      <g>
       <use xlink:href="#me11de4e1f8" x="90.485781" y="165.489284" style="stroke: #000000; stroke-width: 0.8"/>
      </g>
     </g>
     <g id="text_5">
      <!-- 0.6 -->
      <g transform="translate(50.089219 173.467644)scale(0.21 -0.21)">
       <defs>
        <path id="DejaVuSans-36" d="M 2113 2584 
Q 1688 2584 1439 2293 
Q 1191 2003 1191 1497 
Q 1191 994 1439 701 
Q 1688 409 2113 409 
Q 2538 409 2786 701 
Q 3034 994 3034 1497 
Q 3034 2003 2786 2293 
Q 2538 2584 2113 2584 
z
M 3366 4563 
L 3366 3988 
Q 3128 4100 2886 4159 
Q 2644 4219 2406 4219 
Q 1781 4219 1451 3797 
Q 1122 3375 1075 2522 
Q 1259 2794 1537 2939 
Q 1816 3084 2150 3084 
Q 2853 3084 3261 2657 
Q 3669 2231 3669 1497 
Q 3669 778 3244 343 
Q 2819 -91 2113 -91 
Q 1303 -91 875 529 
Q 447 1150 447 2328 
Q 447 3434 972 4092 
Q 1497 4750 2381 4750 
Q 2619 4750 2861 4703 
Q 3103 4656 3366 4563 
z
" transform="scale(0.015625)"/>
       </defs>
       <use xlink:href="#DejaVuSans-30"/>
       <use xlink:href="#DejaVuSans-2e" x="63.623047"/>
       <use xlink:href="#DejaVuSans-36" x="95.410156"/>
      </g>
     </g>
    </g>
    <g id="ytick_6">
     <g id="line2d_8">
      <g>
       <use xlink:href="#me11de4e1f8" x="90.485781" y="129.357559" style="stroke: #000000; stroke-width: 0.8"/>
      </g>
     </g>
     <g id="text_6">
      <!-- 0.8 -->
      <g transform="translate(50.089219 137.335918)scale(0.21 -0.21)">
       <defs>
        <path id="DejaVuSans-38" d="M 2034 2216 
Q 1584 2216 1326 1975 
Q 1069 1734 1069 1313 
Q 1069 891 1326 650 
Q 1584 409 2034 409 
Q 2484 409 2743 651 
Q 3003 894 3003 1313 
Q 3003 1734 2745 1975 
Q 2488 2216 2034 2216 
z
M 1403 2484 
Q 997 2584 770 2862 
Q 544 3141 544 3541 
Q 544 4100 942 4425 
Q 1341 4750 2034 4750 
Q 2731 4750 3128 4425 
Q 3525 4100 3525 3541 
Q 3525 3141 3298 2862 
Q 3072 2584 2669 2484 
Q 3125 2378 3379 2068 
Q 3634 1759 3634 1313 
Q 3634 634 3220 271 
Q 2806 -91 2034 -91 
Q 1263 -91 848 271 
Q 434 634 434 1313 
Q 434 1759 690 2068 
Q 947 2378 1403 2484 
z
M 1172 3481 
Q 1172 3119 1398 2916 
Q 1625 2713 2034 2713 
Q 2441 2713 2670 2916 
Q 2900 3119 2900 3481 
Q 2900 3844 2670 4047 
Q 2441 4250 2034 4250 
Q 1625 4250 1398 4047 
Q 1172 3844 1172 3481 
z
" transform="scale(0.015625)"/>
       </defs>
       <use xlink:href="#DejaVuSans-30"/>
       <use xlink:href="#DejaVuSans-2e" x="63.623047"/>
       <use xlink:href="#DejaVuSans-38" x="95.410156"/>
      </g>
     </g>
    </g>
    <g id="ytick_7">
     <g id="line2d_9">
      <g>
       <use xlink:href="#me11de4e1f8" x="90.485781" y="93.225833" style="stroke: #000000; stroke-width: 0.8"/>
      </g>
     </g>
     <g id="text_7">
      <!-- 1.0 -->
      <g transform="translate(50.089219 101.204192)scale(0.21 -0.21)">
       <defs>
        <path id="DejaVuSans-31" d="M 794 531 
L 1825 531 
L 1825 4091 
L 703 3866 
L 703 4441 
L 1819 4666 
L 2450 4666 
L 2450 531 
L 3481 531 
L 3481 0 
L 794 0 
L 794 531 
z
" transform="scale(0.015625)"/>
       </defs>
       <use xlink:href="#DejaVuSans-31"/>
       <use xlink:href="#DejaVuSans-2e" x="63.623047"/>
       <use xlink:href="#DejaVuSans-30" x="95.410156"/>
      </g>
     </g>
    </g>
    <g id="ytick_8">
     <g id="line2d_10">
      <g>
       <use xlink:href="#me11de4e1f8" x="90.485781" y="57.094107" style="stroke: #000000; stroke-width: 0.8"/>
      </g>
     </g>
     <g id="text_8">
      <!-- 1.2 -->
      <g transform="translate(50.089219 65.072466)scale(0.21 -0.21)">
       <use xlink:href="#DejaVuSans-31"/>
       <use xlink:href="#DejaVuSans-2e" x="63.623047"/>
       <use xlink:href="#DejaVuSans-32" x="95.410156"/>
      </g>
     </g>
    </g>
    <g id="text_9">
     <!-- Learning Rate -->
     <g transform="translate(23.916563 259.925659)rotate(-90)scale(0.22 -0.22)">
      <defs>
       <path id="DejaVuSans-4c" d="M 628 4666 
L 1259 4666 
L 1259 531 
L 3531 531 
L 3531 0 
L 628 0 
L 628 4666 
z
" transform="scale(0.015625)"/>
       <path id="DejaVuSans-65" d="M 3597 1894 
L 3597 1613 
L 953 1613 
Q 991 1019 1311 708 
Q 1631 397 2203 397 
Q 2534 397 2845 478 
Q 3156 559 3463 722 
L 3463 178 
Q 3153 47 2828 -22 
Q 2503 -91 2169 -91 
Q 1331 -91 842 396 
Q 353 884 353 1716 
Q 353 2575 817 3079 
Q 1281 3584 2069 3584 
Q 2775 3584 3186 3129 
Q 3597 2675 3597 1894 
z
M 3022 2063 
Q 3016 2534 2758 2815 
Q 2500 3097 2075 3097 
Q 1594 3097 1305 2825 
Q 1016 2553 972 2059 
L 3022 2063 
z
" transform="scale(0.015625)"/>
       <path id="DejaVuSans-61" d="M 2194 1759 
Q 1497 1759 1228 1600 
Q 959 1441 959 1056 
Q 959 750 1161 570 
Q 1363 391 1709 391 
Q 2188 391 2477 730 
Q 2766 1069 2766 1631 
L 2766 1759 
L 2194 1759 
z
M 3341 1997 
L 3341 0 
L 2766 0 
L 2766 531 
Q 2569 213 2275 61 
Q 1981 -91 1556 -91 
Q 1019 -91 701 211 
Q 384 513 384 1019 
Q 384 1609 779 1909 
Q 1175 2209 1959 2209 
L 2766 2209 
L 2766 2266 
Q 2766 2663 2505 2880 
Q 2244 3097 1772 3097 
Q 1472 3097 1187 3025 
Q 903 2953 641 2809 
L 641 3341 
Q 956 3463 1253 3523 
Q 1550 3584 1831 3584 
Q 2591 3584 2966 3190 
Q 3341 2797 3341 1997 
z
" transform="scale(0.015625)"/>
       <path id="DejaVuSans-72" d="M 2631 2963 
Q 2534 3019 2420 3045 
Q 2306 3072 2169 3072 
Q 1681 3072 1420 2755 
Q 1159 2438 1159 1844 
L 1159 0 
L 581 0 
L 581 3500 
L 1159 3500 
L 1159 2956 
Q 1341 3275 1631 3429 
Q 1922 3584 2338 3584 
Q 2397 3584 2469 3576 
Q 2541 3569 2628 3553 
L 2631 2963 
z
" transform="scale(0.015625)"/>
       <path id="DejaVuSans-6e" d="M 3513 2113 
L 3513 0 
L 2938 0 
L 2938 2094 
Q 2938 2591 2744 2837 
Q 2550 3084 2163 3084 
Q 1697 3084 1428 2787 
Q 1159 2491 1159 1978 
L 1159 0 
L 581 0 
L 581 3500 
L 1159 3500 
L 1159 2956 
Q 1366 3272 1645 3428 
Q 1925 3584 2291 3584 
Q 2894 3584 3203 3211 
Q 3513 2838 3513 2113 
z
" transform="scale(0.015625)"/>
       <path id="DejaVuSans-69" d="M 603 3500 
L 1178 3500 
L 1178 0 
L 603 0 
L 603 3500 
z
M 603 4863 
L 1178 4863 
L 1178 4134 
L 603 4134 
L 603 4863 
z
" transform="scale(0.015625)"/>
       <path id="DejaVuSans-67" d="M 2906 1791 
Q 2906 2416 2648 2759 
Q 2391 3103 1925 3103 
Q 1463 3103 1205 2759 
Q 947 2416 947 1791 
Q 947 1169 1205 825 
Q 1463 481 1925 481 
Q 2391 481 2648 825 
Q 2906 1169 2906 1791 
z
M 3481 434 
Q 3481 -459 3084 -895 
Q 2688 -1331 1869 -1331 
Q 1566 -1331 1297 -1286 
Q 1028 -1241 775 -1147 
L 775 -588 
Q 1028 -725 1275 -790 
Q 1522 -856 1778 -856 
Q 2344 -856 2625 -561 
Q 2906 -266 2906 331 
L 2906 616 
Q 2728 306 2450 153 
Q 2172 0 1784 0 
Q 1141 0 747 490 
Q 353 981 353 1791 
Q 353 2603 747 3093 
Q 1141 3584 1784 3584 
Q 2172 3584 2450 3431 
Q 2728 3278 2906 2969 
L 2906 3500 
L 3481 3500 
L 3481 434 
z
" transform="scale(0.015625)"/>
       <path id="DejaVuSans-20" transform="scale(0.015625)"/>
       <path id="DejaVuSans-52" d="M 2841 2188 
Q 3044 2119 3236 1894 
Q 3428 1669 3622 1275 
L 4263 0 
L 3584 0 
L 2988 1197 
Q 2756 1666 2539 1819 
Q 2322 1972 1947 1972 
L 1259 1972 
L 1259 0 
L 628 0 
L 628 4666 
L 2053 4666 
Q 2853 4666 3247 4331 
Q 3641 3997 3641 3322 
Q 3641 2881 3436 2590 
Q 3231 2300 2841 2188 
z
M 1259 4147 
L 1259 2491 
L 2053 2491 
Q 2509 2491 2742 2702 
Q 2975 2913 2975 3322 
Q 2975 3731 2742 3939 
Q 2509 4147 2053 4147 
L 1259 4147 
z
" transform="scale(0.015625)"/>
       <path id="DejaVuSans-74" d="M 1172 4494 
L 1172 3500 
L 2356 3500 
L 2356 3053 
L 1172 3053 
L 1172 1153 
Q 1172 725 1289 603 
Q 1406 481 1766 481 
L 2356 481 
L 2356 0 
L 1766 0 
Q 1100 0 847 248 
Q 594 497 594 1153 
L 594 3053 
L 172 3053 
L 172 3500 
L 594 3500 
L 594 4494 
L 1172 4494 
z
" transform="scale(0.015625)"/>
      </defs>
      <use xlink:href="#DejaVuSans-4c"/>
      <use xlink:href="#DejaVuSans-65" x="53.962891"/>
      <use xlink:href="#DejaVuSans-61" x="115.486328"/>
      <use xlink:href="#DejaVuSans-72" x="176.765625"/>
      <use xlink:href="#DejaVuSans-6e" x="216.128906"/>
      <use xlink:href="#DejaVuSans-69" x="279.507812"/>
      <use xlink:href="#DejaVuSans-6e" x="307.291016"/>
      <use xlink:href="#DejaVuSans-67" x="370.669922"/>
      <use xlink:href="#DejaVuSans-20" x="434.146484"/>
      <use xlink:href="#DejaVuSans-52" x="465.933594"/>
      <use xlink:href="#DejaVuSans-61" x="533.166016"/>
      <use xlink:href="#DejaVuSans-74" x="594.445312"/>
      <use xlink:href="#DejaVuSans-65" x="633.654297"/>
     </g>
    </g>
   </g>
   <g id="line2d_11">
    <path d="M 182.945781 131.47635 
L 182.945781 93.225833 
" clip-path="url(#p56446feb7f)" style="fill: none; stroke: #3f3f3f; stroke-width: 1.5; stroke-linecap: square"/>
   </g>
   <g id="line2d_12">
    <path d="M 182.945781 108.78557 
L 182.945781 93.225833 
" clip-path="url(#p56446feb7f)" style="fill: none; stroke: #3f3f3f; stroke-width: 4.5; stroke-linecap: square"/>
   </g>
   <g id="line2d_13">
    <path d="M 306.225781 164.74396 
L 306.225781 93.225833 
" clip-path="url(#p56446feb7f)" style="fill: none; stroke: #3f3f3f; stroke-width: 1.5; stroke-linecap: square"/>
   </g>
   <g id="line2d_14">
    <path d="M 306.225781 122.116759 
L 306.225781 93.225833 
" clip-path="url(#p56446feb7f)" style="fill: none; stroke: #3f3f3f; stroke-width: 4.5; stroke-linecap: square"/>
   </g>
   <g id="line2d_15">
    <path d="M 491.145781 273.684236 
L 491.145781 93.225833 
" clip-path="url(#p56446feb7f)" style="fill: none; stroke: #3f3f3f; stroke-width: 1.5; stroke-linecap: square"/>
   </g>
   <g id="line2d_16">
    <path d="M 491.145781 191.499825 
L 491.145781 101.052727 
" clip-path="url(#p56446feb7f)" style="fill: none; stroke: #3f3f3f; stroke-width: 4.5; stroke-linecap: square"/>
   </g>
   <g id="line2d_17">
    <path d="M 614.425781 248.808836 
L 614.425781 93.225833 
" clip-path="url(#p56446feb7f)" style="fill: none; stroke: #3f3f3f; stroke-width: 1.5; stroke-linecap: square"/>
   </g>
   <g id="line2d_18">
    <path d="M 614.425781 180.647492 
L 614.425781 130.411753 
" clip-path="url(#p56446feb7f)" style="fill: none; stroke: #3f3f3f; stroke-width: 4.5; stroke-linecap: square"/>
   </g>
   <g id="patch_5">
    <path d="M 90.485781 337.029187 
L 90.485781 29.880882 
" style="fill: none; stroke: #000000; stroke-width: 1.5; stroke-linejoin: miter; stroke-linecap: square"/>
   </g>
   <g id="patch_6">
    <path d="M 90.485781 337.029187 
L 706.885781 337.029187 
" style="fill: none; stroke: #000000; stroke-width: 1.5; stroke-linejoin: miter; stroke-linecap: square"/>
   </g>
   <g id="PathCollection_1">
    <defs>
     <path id="m6d5802db30" d="M 0 1.5 
C 0.397805 1.5 0.77937 1.341951 1.06066 1.06066 
C 1.341951 0.77937 1.5 0.397805 1.5 0 
C 1.5 -0.397805 1.341951 -0.77937 1.06066 -1.06066 
C 0.77937 -1.341951 0.397805 -1.5 0 -1.5 
C -0.397805 -1.5 -0.77937 -1.341951 -1.06066 -1.06066 
C -1.341951 -0.77937 -1.5 -0.397805 -1.5 0 
C -1.5 0.397805 -1.341951 0.77937 -1.06066 1.06066 
C -0.77937 1.341951 -0.397805 1.5 0 1.5 
z
" style="stroke: #3f3f3f"/>
    </defs>
    <g clip-path="url(#p56446feb7f)">
     <use xlink:href="#m6d5802db30" x="182.945781" y="93.225833" style="fill: #ffffff; stroke: #3f3f3f"/>
    </g>
   </g>
   <g id="PathCollection_2">
    <g clip-path="url(#p56446feb7f)">
     <use xlink:href="#m6d5802db30" x="306.225781" y="102.11197" style="fill: #ffffff; stroke: #3f3f3f"/>
    </g>
   </g>
   <g id="PathCollection_3">
    <g clip-path="url(#p56446feb7f)">
     <use xlink:href="#m6d5802db30" x="491.145781" y="142.138238" style="fill: #ffffff; stroke: #3f3f3f"/>
    </g>
   </g>
   <g id="PathCollection_4">
    <g clip-path="url(#p56446feb7f)">
     <use xlink:href="#m6d5802db30" x="614.425781" y="141.544566" style="fill: #ffffff; stroke: #3f3f3f"/>
    </g>
   </g>
   <g id="text_10">
    <!-- A -->
    <g transform="translate(44.255781 29.995312)scale(0.3 -0.3)">
     <defs>
      <path id="DejaVuSans-41" d="M 2188 4044 
L 1331 1722 
L 3047 1722 
L 2188 4044 
z
M 1831 4666 
L 2547 4666 
L 4325 0 
L 3669 0 
L 3244 1197 
L 1141 1197 
L 716 0 
L 50 0 
L 1831 4666 
z
" transform="scale(0.015625)"/>
     </defs>
     <use xlink:href="#DejaVuSans-41"/>
    </g>
   </g>
   <g id="text_11">
    <!-- * -->
    <g transform="translate(240.085781 53.350669)scale(0.18 -0.18)">
     <defs>
      <path id="DejaVuSans-2a" d="M 3009 3897 
L 1888 3291 
L 3009 2681 
L 2828 2375 
L 1778 3009 
L 1778 1831 
L 1422 1831 
L 1422 3009 
L 372 2375 
L 191 2681 
L 1313 3291 
L 191 3897 
L 372 4206 
L 1422 3572 
L 1422 4750 
L 1778 4750 
L 1778 3572 
L 2828 4206 
L 3009 3897 
z
" transform="scale(0.015625)"/>
     </defs>
     <use xlink:href="#DejaVuSans-2a"/>
    </g>
   </g>
   <g id="text_12">
    <!-- n.s -->
    <g transform="translate(539.533281 53.350669)scale(0.18 -0.18)">
     <defs>
      <path id="DejaVuSans-73" d="M 2834 3397 
L 2834 2853 
Q 2591 2978 2328 3040 
Q 2066 3103 1784 3103 
Q 1356 3103 1142 2972 
Q 928 2841 928 2578 
Q 928 2378 1081 2264 
Q 1234 2150 1697 2047 
L 1894 2003 
Q 2506 1872 2764 1633 
Q 3022 1394 3022 966 
Q 3022 478 2636 193 
Q 2250 -91 1575 -91 
Q 1294 -91 989 -36 
Q 684 19 347 128 
L 347 722 
Q 666 556 975 473 
Q 1284 391 1588 391 
Q 1994 391 2212 530 
Q 2431 669 2431 922 
Q 2431 1156 2273 1281 
Q 2116 1406 1581 1522 
L 1381 1569 
Q 847 1681 609 1914 
Q 372 2147 372 2553 
Q 372 3047 722 3315 
Q 1072 3584 1716 3584 
Q 2034 3584 2315 3537 
Q 2597 3491 2834 3397 
z
" transform="scale(0.015625)"/>
     </defs>
     <use xlink:href="#DejaVuSans-6e"/>
     <use xlink:href="#DejaVuSans-2e" x="63.378906"/>
     <use xlink:href="#DejaVuSans-73" x="95.166016"/>
    </g>
   </g>
  </g>
  <g id="axes_2">
   <g id="patch_7">
    <path d="M 90.485781 678.372938 
L 706.885781 678.372938 
L 706.885781 371.224633 
L 90.485781 371.224633 
z
" style="fill: #ffffff"/>
   </g>
   <g id="patch_8">
    <path d="M 244.585781 619.299579 
L 244.585781 619.299579 
L 244.585781 619.299579 
L 244.585781 619.299579 
z
" clip-path="url(#pb1e859a2e2)" style="fill: #3274a1; stroke: #3f3f3f; stroke-width: 0.75; stroke-linejoin: miter"/>
   </g>
   <g id="PolyCollection_5">
    <defs>
     <path id="mc07c908be1" d="M 183.23737 -86.469104 
L 182.654192 -86.469104 
L 182.562079 -87.120572 
L 182.449585 -87.772041 
L 182.314933 -88.42351 
L 182.156877 -89.074979 
L 181.974802 -89.726447 
L 181.768743 -90.377916 
L 181.539323 -91.029385 
L 181.28758 -91.680853 
L 181.014721 -92.332322 
L 180.721817 -92.983791 
L 180.409499 -93.635259 
L 180.0777 -94.286728 
L 179.725512 -94.938197 
L 179.351187 -95.589666 
L 178.952307 -96.241134 
L 178.526093 -96.892603 
L 178.069807 -97.544072 
L 177.581157 -98.19554 
L 177.058608 -98.847009 
L 176.501513 -99.498478 
L 175.909992 -100.149947 
L 175.284547 -100.801415 
L 174.625461 -101.452884 
L 173.932066 -102.104353 
L 173.202032 -102.755821 
L 172.430815 -103.40729 
L 171.611434 -104.058759 
L 170.734651 -104.710227 
L 169.789598 -105.361696 
L 168.764809 -106.013165 
L 167.649533 -106.664634 
L 166.435164 -107.316102 
L 165.116582 -107.967571 
L 163.693236 -108.61904 
L 162.169815 -109.270508 
L 160.556442 -109.921977 
L 158.868371 -110.573446 
L 157.125264 -111.224915 
L 155.350161 -111.876383 
L 153.568257 -112.527852 
L 151.805639 -113.179321 
L 150.088075 -113.830789 
L 148.439923 -114.482258 
L 146.883208 -115.133727 
L 145.436863 -115.785195 
L 144.116146 -116.436664 
L 142.932227 -117.088133 
L 141.891971 -117.739602 
L 140.997938 -118.39107 
L 140.248629 -119.042539 
L 139.639002 -119.694008 
L 139.161226 -120.345476 
L 138.805643 -120.996945 
L 138.561829 -121.648414 
L 138.41964 -122.299883 
L 138.370127 -122.951351 
L 138.406204 -123.60282 
L 138.523019 -124.254289 
L 138.718013 -124.905757 
L 138.990727 -125.557226 
L 139.342425 -126.208695 
L 139.775652 -126.860163 
L 140.293785 -127.511632 
L 140.900643 -128.163101 
L 141.600139 -128.81457 
L 142.395941 -129.466038 
L 143.291094 -130.117507 
L 144.287551 -130.768976 
L 145.385625 -131.420444 
L 146.583402 -132.071913 
L 147.876223 -132.723382 
L 149.256366 -133.374851 
L 150.713031 -134.026319 
L 152.232735 -134.677788 
L 153.800082 -135.329257 
L 155.398853 -135.980725 
L 157.013242 -136.632194 
L 158.629032 -137.283663 
L 160.234502 -137.935131 
L 161.820899 -138.5866 
L 163.382396 -139.238069 
L 164.915549 -139.889538 
L 166.418364 -140.541006 
L 167.889178 -141.192475 
L 169.325563 -141.843944 
L 170.723473 -142.495412 
L 172.076778 -143.146881 
L 173.377281 -143.79835 
L 174.61518 -144.449819 
L 175.779896 -145.101287 
L 176.861109 -145.752756 
L 177.849816 -146.404225 
L 178.739261 -147.055693 
L 179.525601 -147.707162 
L 180.208231 -148.358631 
L 180.789762 -149.010099 
L 181.27569 -149.661568 
L 181.673829 -150.313037 
L 181.993614 -150.964506 
L 183.897949 -150.964506 
L 183.897949 -150.964506 
L 184.217734 -150.313037 
L 184.615873 -149.661568 
L 185.1018 -149.010099 
L 185.683332 -148.358631 
L 186.365962 -147.707162 
L 187.152302 -147.055693 
L 188.041747 -146.404225 
L 189.030453 -145.752756 
L 190.111666 -145.101287 
L 191.276383 -144.449819 
L 192.514282 -143.79835 
L 193.814785 -143.146881 
L 195.16809 -142.495412 
L 196.565999 -141.843944 
L 198.002385 -141.192475 
L 199.473199 -140.541006 
L 200.976013 -139.889538 
L 202.509166 -139.238069 
L 204.070664 -138.5866 
L 205.657061 -137.935131 
L 207.262531 -137.283663 
L 208.878321 -136.632194 
L 210.49271 -135.980725 
L 212.091481 -135.329257 
L 213.658827 -134.677788 
L 215.178531 -134.026319 
L 216.635197 -133.374851 
L 218.015339 -132.723382 
L 219.308161 -132.071913 
L 220.505937 -131.420444 
L 221.604011 -130.768976 
L 222.600469 -130.117507 
L 223.495622 -129.466038 
L 224.291424 -128.81457 
L 224.990919 -128.163101 
L 225.597778 -127.511632 
L 226.115911 -126.860163 
L 226.549138 -126.208695 
L 226.900836 -125.557226 
L 227.17355 -124.905757 
L 227.368544 -124.254289 
L 227.485359 -123.60282 
L 227.521436 -122.951351 
L 227.471923 -122.299883 
L 227.329734 -121.648414 
L 227.085919 -120.996945 
L 226.730337 -120.345476 
L 226.252561 -119.694008 
L 225.642933 -119.042539 
L 224.893625 -118.39107 
L 223.999591 -117.739602 
L 222.959335 -117.088133 
L 221.775416 -116.436664 
L 220.454699 -115.785195 
L 219.008355 -115.133727 
L 217.451639 -114.482258 
L 215.803487 -113.830789 
L 214.085923 -113.179321 
L 212.323306 -112.527852 
L 210.541402 -111.876383 
L 208.766298 -111.224915 
L 207.023192 -110.573446 
L 205.33512 -109.921977 
L 203.721747 -109.270508 
L 202.198327 -108.61904 
L 200.77498 -107.967571 
L 199.456398 -107.316102 
L 198.242029 -106.664634 
L 197.126754 -106.013165 
L 196.101965 -105.361696 
L 195.156912 -104.710227 
L 194.280129 -104.058759 
L 193.460748 -103.40729 
L 192.689531 -102.755821 
L 191.959496 -102.104353 
L 191.266102 -101.452884 
L 190.607016 -100.801415 
L 189.981571 -100.149947 
L 189.390049 -99.498478 
L 188.832954 -98.847009 
L 188.310406 -98.19554 
L 187.821755 -97.544072 
L 187.365469 -96.892603 
L 186.939255 -96.241134 
L 186.540376 -95.589666 
L 186.166051 -94.938197 
L 185.813863 -94.286728 
L 185.482064 -93.635259 
L 185.169746 -92.983791 
L 184.876842 -92.332322 
L 184.603983 -91.680853 
L 184.35224 -91.029385 
L 184.122819 -90.377916 
L 183.916761 -89.726447 
L 183.734685 -89.074979 
L 183.576629 -88.42351 
L 183.441977 -87.772041 
L 183.329484 -87.120572 
L 183.23737 -86.469104 
z
" style="stroke: #3f3f3f; stroke-width: 1.5"/>
    </defs>
    <g clip-path="url(#pb1e859a2e2)">
     <use xlink:href="#mc07c908be1" x="0" y="713.864813" style="fill: #332288; stroke: #3f3f3f; stroke-width: 1.5"/>
    </g>
   </g>
   <g id="patch_9">
    <path d="M 244.585781 619.299579 
L 244.585781 619.299579 
L 244.585781 619.299579 
L 244.585781 619.299579 
z
" clip-path="url(#pb1e859a2e2)" style="fill: #e1812c; stroke: #3f3f3f; stroke-width: 0.75; stroke-linejoin: miter"/>
   </g>
   <g id="PolyCollection_6">
    <defs>
     <path id="m345134237a" d="M 307.180485 -92.440603 
L 305.271077 -92.440603 
L 304.922504 -92.93903 
L 304.47557 -93.437456 
L 303.913162 -93.935883 
L 303.218587 -94.434309 
L 302.376691 -94.932735 
L 301.375107 -95.431162 
L 300.205497 -95.929588 
L 298.864668 -96.428014 
L 297.355399 -96.926441 
L 295.686861 -97.424867 
L 293.874496 -97.923293 
L 291.939337 -98.42172 
L 289.906763 -98.920146 
L 287.804814 -99.418572 
L 285.662206 -99.916999 
L 283.506292 -100.415425 
L 281.36118 -100.913851 
L 279.246241 -101.412278 
L 277.175154 -101.910704 
L 275.15559 -102.40913 
L 273.189512 -102.907557 
L 271.274011 -103.405983 
L 269.402527 -103.90441 
L 267.566286 -104.402836 
L 265.755769 -104.901262 
L 263.96212 -105.399689 
L 262.178386 -105.898115 
L 260.400596 -106.396541 
L 258.628687 -106.894968 
L 256.867296 -107.393394 
L 255.126411 -107.89182 
L 253.421847 -108.390247 
L 251.775423 -108.888673 
L 250.214739 -109.387099 
L 248.772391 -109.885526 
L 247.484558 -110.383952 
L 246.388951 -110.882378 
L 245.522226 -111.380805 
L 244.917095 -111.879231 
L 244.599437 -112.377657 
L 244.585781 -112.876084 
L 244.881498 -113.37451 
L 245.479969 -113.872937 
L 246.362883 -114.371363 
L 247.50163 -114.869789 
L 248.859633 -115.368216 
L 250.395327 -115.866642 
L 252.065412 -116.365068 
L 253.828 -116.863495 
L 255.645315 -117.361921 
L 257.4857 -117.860347 
L 259.324785 -118.358774 
L 261.145796 -118.8572 
L 262.939091 -119.355626 
L 264.701067 -119.854053 
L 266.432655 -120.352479 
L 268.137599 -120.850905 
L 269.820741 -121.349332 
L 271.486486 -121.847758 
L 273.137576 -122.346185 
L 274.774298 -122.844611 
L 276.394142 -123.343037 
L 277.991937 -123.841464 
L 279.560391 -124.33989 
L 281.090949 -124.838316 
L 282.57482 -125.336743 
L 284.004029 -125.835169 
L 285.372327 -126.333595 
L 286.675829 -126.832022 
L 287.913301 -127.330448 
L 289.086069 -127.828874 
L 290.19759 -128.327301 
L 291.252779 -128.825727 
L 292.257231 -129.324153 
L 293.216457 -129.82258 
L 294.135285 -130.321006 
L 295.017464 -130.819432 
L 295.865538 -131.317859 
L 296.680926 -131.816285 
L 297.464179 -132.314712 
L 298.215286 -132.813138 
L 298.933981 -133.311564 
L 299.619962 -133.809991 
L 300.272995 -134.308417 
L 300.892908 -134.806843 
L 301.479506 -135.30527 
L 302.032461 -135.803696 
L 302.551213 -136.302122 
L 303.03495 -136.800549 
L 303.482654 -137.298975 
L 303.893247 -137.797401 
L 304.265773 -138.295828 
L 304.599621 -138.794254 
L 304.894718 -139.29268 
L 305.15167 -139.791107 
L 305.371831 -140.289533 
L 305.557286 -140.787959 
L 305.710757 -141.286386 
L 305.835452 -141.784812 
L 306.616111 -141.784812 
L 306.616111 -141.784812 
L 306.740806 -141.286386 
L 306.894277 -140.787959 
L 307.079731 -140.289533 
L 307.299893 -139.791107 
L 307.556845 -139.29268 
L 307.851942 -138.794254 
L 308.18579 -138.295828 
L 308.558316 -137.797401 
L 308.968908 -137.298975 
L 309.416613 -136.800549 
L 309.900349 -136.302122 
L 310.419102 -135.803696 
L 310.972056 -135.30527 
L 311.558655 -134.806843 
L 312.178568 -134.308417 
L 312.8316 -133.809991 
L 313.517582 -133.311564 
L 314.236277 -132.813138 
L 314.987384 -132.314712 
L 315.770636 -131.816285 
L 316.586025 -131.317859 
L 317.434098 -130.819432 
L 318.316278 -130.321006 
L 319.235105 -129.82258 
L 320.194332 -129.324153 
L 321.198783 -128.825727 
L 322.253973 -128.327301 
L 323.365494 -127.828874 
L 324.538262 -127.330448 
L 325.775734 -126.832022 
L 327.079236 -126.333595 
L 328.447533 -125.835169 
L 329.876743 -125.336743 
L 331.360614 -124.838316 
L 332.891171 -124.33989 
L 334.459626 -123.841464 
L 336.057421 -123.343037 
L 337.677265 -122.844611 
L 339.313986 -122.346185 
L 340.965077 -121.847758 
L 342.630821 -121.349332 
L 344.313964 -120.850905 
L 346.018907 -120.352479 
L 347.750495 -119.854053 
L 349.512471 -119.355626 
L 351.305766 -118.8572 
L 353.126778 -118.358774 
L 354.965863 -117.860347 
L 356.806248 -117.361921 
L 358.623563 -116.863495 
L 360.386151 -116.365068 
L 362.056236 -115.866642 
L 363.59193 -115.368216 
L 364.949933 -114.869789 
L 366.088679 -114.371363 
L 366.971594 -113.872937 
L 367.570065 -113.37451 
L 367.865781 -112.876084 
L 367.852126 -112.377657 
L 367.534468 -111.879231 
L 366.929337 -111.380805 
L 366.062612 -110.882378 
L 364.967004 -110.383952 
L 363.679171 -109.885526 
L 362.236823 -109.387099 
L 360.676139 -108.888673 
L 359.029716 -108.390247 
L 357.325151 -107.89182 
L 355.584267 -107.393394 
L 353.822875 -106.894968 
L 352.050967 -106.396541 
L 350.273177 -105.898115 
L 348.489442 -105.399689 
L 346.695793 -104.901262 
L 344.885277 -104.402836 
L 343.049035 -103.90441 
L 341.177552 -103.405983 
L 339.262051 -102.907557 
L 337.295973 -102.40913 
L 335.276409 -101.910704 
L 333.205322 -101.412278 
L 331.090382 -100.913851 
L 328.945271 -100.415425 
L 326.789357 -99.916999 
L 324.646749 -99.418572 
L 322.544799 -98.920146 
L 320.512226 -98.42172 
L 318.577066 -97.923293 
L 316.764701 -97.424867 
L 315.096163 -96.926441 
L 313.586895 -96.428014 
L 312.246065 -95.929588 
L 311.076456 -95.431162 
L 310.074872 -94.932735 
L 309.232976 -94.434309 
L 308.5384 -93.935883 
L 307.975993 -93.437456 
L 307.529059 -92.93903 
L 307.180485 -92.440603 
z
" style="stroke: #3f3f3f; stroke-width: 1.5"/>
    </defs>
    <g clip-path="url(#pb1e859a2e2)">
     <use xlink:href="#m345134237a" x="0" y="713.864813" style="fill: #88ccee; stroke: #3f3f3f; stroke-width: 1.5"/>
    </g>
   </g>
   <g id="PolyCollection_7">
    <defs>
     <path id="m7cf7f8023a" d="M 492.729329 -54.938803 
L 489.562233 -54.938803 
L 489.001895 -57.66055 
L 488.283919 -60.382297 
L 487.378586 -63.104044 
L 486.255251 -65.82579 
L 484.883857 -68.547537 
L 483.236831 -71.269284 
L 481.2913 -73.991031 
L 479.031525 -76.712777 
L 476.451388 -79.434524 
L 473.55674 -82.156271 
L 470.367383 -84.878018 
L 466.918444 -87.599764 
L 463.26092 -90.321511 
L 459.461215 -93.043258 
L 455.599556 -95.765005 
L 451.767258 -98.486752 
L 448.062942 -101.208498 
L 444.587882 -103.930245 
L 441.440808 -106.651992 
L 438.712531 -109.373739 
L 436.480827 -112.095485 
L 434.806017 -114.817232 
L 433.727624 -117.538979 
L 433.26241 -120.260726 
L 433.403956 -122.982472 
L 434.123802 -125.704219 
L 435.374025 -128.425966 
L 437.090964 -131.147713 
L 439.199726 -133.869459 
L 441.619044 -136.591206 
L 444.266038 -139.312953 
L 447.060502 -142.0347 
L 449.928412 -144.756447 
L 452.804466 -147.478193 
L 455.633613 -150.19994 
L 458.371614 -152.921687 
L 460.984809 -155.643434 
L 463.449274 -158.36518 
L 465.749635 -161.086927 
L 467.877724 -163.808674 
L 469.831284 -166.530421 
L 471.612814 -169.252167 
L 473.228623 -171.973914 
L 474.688082 -174.695661 
L 476.003025 -177.417408 
L 477.18723 -180.139155 
L 478.255908 -182.860901 
L 479.225145 -185.582648 
L 480.111265 -188.304395 
L 480.930124 -191.026142 
L 481.696373 -193.747888 
L 482.422744 -196.469635 
L 483.119439 -199.191382 
L 483.793675 -201.913129 
L 484.449457 -204.634875 
L 485.087574 -207.356622 
L 485.705847 -210.078369 
L 486.299565 -212.800116 
L 486.862077 -215.521862 
L 487.385452 -218.243609 
L 487.861158 -220.965356 
L 488.280685 -223.687103 
L 488.636079 -226.40885 
L 488.920366 -229.130596 
L 489.127871 -231.852343 
L 489.25445 -234.57409 
L 489.29767 -237.295837 
L 489.256968 -240.017583 
L 489.13381 -242.73933 
L 488.931863 -245.461077 
L 488.657175 -248.182824 
L 488.318311 -250.90457 
L 487.926438 -253.626317 
L 487.495267 -256.348064 
L 487.040834 -259.069811 
L 486.58106 -261.791558 
L 486.135106 -264.513304 
L 485.722501 -267.235051 
L 485.362132 -269.956798 
L 485.071141 -272.678545 
L 484.863851 -275.400291 
L 484.750813 -278.122038 
L 484.738087 -280.843785 
L 484.826827 -283.565532 
L 485.013241 -286.287278 
L 485.288914 -289.009025 
L 485.641486 -291.730772 
L 486.055595 -294.452519 
L 486.514015 -297.174266 
L 486.998846 -299.896012 
L 487.492671 -302.617759 
L 487.979562 -305.339506 
L 488.445865 -308.061253 
L 488.880724 -310.782999 
L 489.276319 -313.504746 
L 489.627849 -316.226493 
L 489.933297 -318.94824 
L 490.193034 -321.669986 
L 490.409324 -324.391733 
L 491.882239 -324.391733 
L 491.882239 -324.391733 
L 492.098528 -321.669986 
L 492.358265 -318.94824 
L 492.663714 -316.226493 
L 493.015244 -313.504746 
L 493.410838 -310.782999 
L 493.845697 -308.061253 
L 494.312001 -305.339506 
L 494.798891 -302.617759 
L 495.292716 -299.896012 
L 495.777547 -297.174266 
L 496.235967 -294.452519 
L 496.650077 -291.730772 
L 497.002648 -289.009025 
L 497.278321 -286.287278 
L 497.464735 -283.565532 
L 497.553475 -280.843785 
L 497.540749 -278.122038 
L 497.427712 -275.400291 
L 497.220422 -272.678545 
L 496.929431 -269.956798 
L 496.569061 -267.235051 
L 496.156456 -264.513304 
L 495.710502 -261.791558 
L 495.250729 -259.069811 
L 494.796295 -256.348064 
L 494.365124 -253.626317 
L 493.973251 -250.90457 
L 493.634388 -248.182824 
L 493.359699 -245.461077 
L 493.157753 -242.73933 
L 493.034595 -240.017583 
L 492.993893 -237.295837 
L 493.037113 -234.57409 
L 493.163692 -231.852343 
L 493.371196 -229.130596 
L 493.655483 -226.40885 
L 494.010877 -223.687103 
L 494.430404 -220.965356 
L 494.90611 -218.243609 
L 495.429485 -215.521862 
L 495.991997 -212.800116 
L 496.585716 -210.078369 
L 497.203989 -207.356622 
L 497.842106 -204.634875 
L 498.497887 -201.913129 
L 499.172124 -199.191382 
L 499.868819 -196.469635 
L 500.59519 -193.747888 
L 501.361439 -191.026142 
L 502.180298 -188.304395 
L 503.066417 -185.582648 
L 504.035654 -182.860901 
L 505.104332 -180.139155 
L 506.288537 -177.417408 
L 507.60348 -174.695661 
L 509.062939 -171.973914 
L 510.678749 -169.252167 
L 512.460278 -166.530421 
L 514.413838 -163.808674 
L 516.541928 -161.086927 
L 518.842288 -158.36518 
L 521.306753 -155.643434 
L 523.919948 -152.921687 
L 526.65795 -150.19994 
L 529.487096 -147.478193 
L 532.36315 -144.756447 
L 535.23106 -142.0347 
L 538.025525 -139.312953 
L 540.672519 -136.591206 
L 543.091836 -133.869459 
L 545.200599 -131.147713 
L 546.917537 -128.425966 
L 548.167761 -125.704219 
L 548.887607 -122.982472 
L 549.029152 -120.260726 
L 548.563938 -117.538979 
L 547.485546 -114.817232 
L 545.810735 -112.095485 
L 543.579031 -109.373739 
L 540.850754 -106.651992 
L 537.70368 -103.930245 
L 534.22862 -101.208498 
L 530.524304 -98.486752 
L 526.692007 -95.765005 
L 522.830348 -93.043258 
L 519.030643 -90.321511 
L 515.373119 -87.599764 
L 511.924179 -84.878018 
L 508.734823 -82.156271 
L 505.840175 -79.434524 
L 503.260038 -76.712777 
L 501.000262 -73.991031 
L 499.054732 -71.269284 
L 497.407705 -68.547537 
L 496.036311 -65.82579 
L 494.912976 -63.104044 
L 494.007643 -60.382297 
L 493.289668 -57.66055 
L 492.729329 -54.938803 
z
" style="stroke: #3f3f3f; stroke-width: 1.5"/>
    </defs>
    <g clip-path="url(#pb1e859a2e2)">
     <use xlink:href="#m7cf7f8023a" x="0" y="713.864813" style="fill: #882255; stroke: #3f3f3f; stroke-width: 1.5"/>
    </g>
   </g>
   <g id="PolyCollection_8">
    <defs>
     <path id="mc9e9bf207b" d="M 616.853204 -49.453162 
L 611.998359 -49.453162 
L 611.187844 -52.273624 
L 610.165596 -55.094085 
L 608.896866 -57.914547 
L 607.347666 -60.735009 
L 605.487021 -63.555471 
L 603.289629 -66.375933 
L 600.738774 -69.196395 
L 597.829324 -72.016857 
L 594.570551 -74.837319 
L 590.988492 -77.657781 
L 587.127563 -80.478243 
L 583.051137 -83.298705 
L 578.840878 -86.119167 
L 574.594693 -88.939629 
L 570.423279 -91.760091 
L 566.445403 -94.580553 
L 562.782152 -97.401015 
L 559.550545 -100.221476 
L 556.856985 -103.041938 
L 554.791057 -105.8624 
L 553.420213 -108.682862 
L 552.785781 -111.503324 
L 552.900658 -114.323786 
L 553.748873 -117.144248 
L 555.287051 -119.96471 
L 557.447613 -122.785172 
L 560.143407 -125.605634 
L 563.27334 -128.426096 
L 566.728512 -131.246558 
L 570.398326 -134.06702 
L 574.176119 -136.887482 
L 577.963906 -139.707944 
L 581.675983 -142.528406 
L 585.24125 -145.348867 
L 588.604256 -148.169329 
L 591.725095 -150.989791 
L 594.578347 -153.810253 
L 597.15135 -156.630715 
L 599.44206 -159.451177 
L 601.456786 -162.271639 
L 603.208003 -165.092101 
L 604.712424 -167.912563 
L 605.989406 -170.733025 
L 607.059741 -173.553487 
L 607.944799 -176.373949 
L 608.665968 -179.194411 
L 609.244306 -182.014873 
L 609.700325 -184.835335 
L 610.053817 -187.655797 
L 610.323682 -190.476258 
L 610.527698 -193.29672 
L 610.682242 -196.117182 
L 610.801961 -198.937644 
L 610.899425 -201.758106 
L 610.984798 -204.578568 
L 611.065563 -207.39903 
L 611.146358 -210.219492 
L 611.228919 -213.039954 
L 611.312188 -215.860416 
L 611.392565 -218.680878 
L 611.464309 -221.50134 
L 611.52007 -224.321802 
L 611.551521 -227.142264 
L 611.55007 -229.962726 
L 611.507591 -232.783188 
L 611.417153 -235.603649 
L 611.273693 -238.424111 
L 611.074607 -241.244573 
L 610.820192 -244.065035 
L 610.513944 -246.885497 
L 610.162651 -249.705959 
L 609.776277 -252.526421 
L 609.367638 -255.346883 
L 608.95186 -258.167345 
L 608.545657 -260.987807 
L 608.166452 -263.808269 
L 607.831419 -266.628731 
L 607.556483 -269.449193 
L 607.355374 -272.269655 
L 607.238791 -275.090117 
L 607.213763 -277.910579 
L 607.283234 -280.73104 
L 607.445934 -283.551502 
L 607.696523 -286.371964 
L 608.026011 -289.192426 
L 608.422394 -292.012888 
L 608.871479 -294.83335 
L 609.357788 -297.653812 
L 609.865495 -300.474274 
L 610.379308 -303.294736 
L 610.885231 -306.115198 
L 611.371163 -308.93566 
L 611.827304 -311.756122 
L 612.246358 -314.576584 
L 612.623552 -317.397046 
L 612.956482 -320.217508 
L 613.244838 -323.03797 
L 613.490045 -325.858431 
L 613.69486 -328.678893 
L 615.156703 -328.678893 
L 615.156703 -328.678893 
L 615.361517 -325.858431 
L 615.606725 -323.03797 
L 615.895081 -320.217508 
L 616.22801 -317.397046 
L 616.605204 -314.576584 
L 617.024259 -311.756122 
L 617.480399 -308.93566 
L 617.966331 -306.115198 
L 618.472254 -303.294736 
L 618.986068 -300.474274 
L 619.493775 -297.653812 
L 619.980084 -294.83335 
L 620.429168 -292.012888 
L 620.825552 -289.192426 
L 621.155039 -286.371964 
L 621.405629 -283.551502 
L 621.568329 -280.73104 
L 621.6378 -277.910579 
L 621.612771 -275.090117 
L 621.496189 -272.269655 
L 621.295079 -269.449193 
L 621.020143 -266.628731 
L 620.68511 -263.808269 
L 620.305906 -260.987807 
L 619.899702 -258.167345 
L 619.483925 -255.346883 
L 619.075286 -252.526421 
L 618.688912 -249.705959 
L 618.337618 -246.885497 
L 618.031371 -244.065035 
L 617.776956 -241.244573 
L 617.577869 -238.424111 
L 617.43441 -235.603649 
L 617.343971 -232.783188 
L 617.301492 -229.962726 
L 617.300041 -227.142264 
L 617.331493 -224.321802 
L 617.387253 -221.50134 
L 617.458997 -218.680878 
L 617.539375 -215.860416 
L 617.622644 -213.039954 
L 617.705205 -210.219492 
L 617.785999 -207.39903 
L 617.866765 -204.578568 
L 617.952137 -201.758106 
L 618.049602 -198.937644 
L 618.169321 -196.117182 
L 618.323864 -193.29672 
L 618.52788 -190.476258 
L 618.797745 -187.655797 
L 619.151238 -184.835335 
L 619.607256 -182.014873 
L 620.185595 -179.194411 
L 620.906764 -176.373949 
L 621.791822 -173.553487 
L 622.862157 -170.733025 
L 624.139138 -167.912563 
L 625.643559 -165.092101 
L 627.394777 -162.271639 
L 629.409502 -159.451177 
L 631.700213 -156.630715 
L 634.273216 -153.810253 
L 637.126468 -150.989791 
L 640.247306 -148.169329 
L 643.610313 -145.348867 
L 647.175579 -142.528406 
L 650.887657 -139.707944 
L 654.675444 -136.887482 
L 658.453237 -134.06702 
L 662.123051 -131.246558 
L 665.578222 -128.426096 
L 668.708156 -125.605634 
L 671.403949 -122.785172 
L 673.564511 -119.96471 
L 675.10269 -117.144248 
L 675.950905 -114.323786 
L 676.065781 -111.503324 
L 675.431349 -108.682862 
L 674.060505 -105.8624 
L 671.994578 -103.041938 
L 669.301017 -100.221476 
L 666.069411 -97.401015 
L 662.406159 -94.580553 
L 658.428283 -91.760091 
L 654.25687 -88.939629 
L 650.010684 -86.119167 
L 645.800426 -83.298705 
L 641.724 -80.478243 
L 637.86307 -77.657781 
L 634.281012 -74.837319 
L 631.022239 -72.016857 
L 628.112789 -69.196395 
L 625.561934 -66.375933 
L 623.364541 -63.555471 
L 621.503897 -60.735009 
L 619.954696 -57.914547 
L 618.685966 -55.094085 
L 617.663718 -52.273624 
L 616.853204 -49.453162 
z
" style="stroke: #3f3f3f; stroke-width: 1.5"/>
    </defs>
    <g clip-path="url(#pb1e859a2e2)">
     <use xlink:href="#mc9e9bf207b" x="0" y="713.864813" style="fill: #cc6677; stroke: #3f3f3f; stroke-width: 1.5"/>
    </g>
   </g>
   <g id="matplotlib.axis_3">
    <g id="xtick_3">
     <g id="line2d_19">
      <g>
       <use xlink:href="#m7f14164ef3" x="244.585781" y="678.372938" style="stroke: #000000; stroke-width: 0.8"/>
      </g>
     </g>
     <g id="text_13">
      <!-- Forward -->
      <g transform="translate(200.355469 702.0895)scale(0.22 -0.22)">
       <defs>
        <path id="DejaVuSans-46" d="M 628 4666 
L 3309 4666 
L 3309 4134 
L 1259 4134 
L 1259 2759 
L 3109 2759 
L 3109 2228 
L 1259 2228 
L 1259 0 
L 628 0 
L 628 4666 
z
" transform="scale(0.015625)"/>
        <path id="DejaVuSans-6f" d="M 1959 3097 
Q 1497 3097 1228 2736 
Q 959 2375 959 1747 
Q 959 1119 1226 758 
Q 1494 397 1959 397 
Q 2419 397 2687 759 
Q 2956 1122 2956 1747 
Q 2956 2369 2687 2733 
Q 2419 3097 1959 3097 
z
M 1959 3584 
Q 2709 3584 3137 3096 
Q 3566 2609 3566 1747 
Q 3566 888 3137 398 
Q 2709 -91 1959 -91 
Q 1206 -91 779 398 
Q 353 888 353 1747 
Q 353 2609 779 3096 
Q 1206 3584 1959 3584 
z
" transform="scale(0.015625)"/>
        <path id="DejaVuSans-77" d="M 269 3500 
L 844 3500 
L 1563 769 
L 2278 3500 
L 2956 3500 
L 3675 769 
L 4391 3500 
L 4966 3500 
L 4050 0 
L 3372 0 
L 2619 2869 
L 1863 0 
L 1184 0 
L 269 3500 
z
" transform="scale(0.015625)"/>
        <path id="DejaVuSans-64" d="M 2906 2969 
L 2906 4863 
L 3481 4863 
L 3481 0 
L 2906 0 
L 2906 525 
Q 2725 213 2448 61 
Q 2172 -91 1784 -91 
Q 1150 -91 751 415 
Q 353 922 353 1747 
Q 353 2572 751 3078 
Q 1150 3584 1784 3584 
Q 2172 3584 2448 3432 
Q 2725 3281 2906 2969 
z
M 947 1747 
Q 947 1113 1208 752 
Q 1469 391 1925 391 
Q 2381 391 2643 752 
Q 2906 1113 2906 1747 
Q 2906 2381 2643 2742 
Q 2381 3103 1925 3103 
Q 1469 3103 1208 2742 
Q 947 2381 947 1747 
z
" transform="scale(0.015625)"/>
       </defs>
       <use xlink:href="#DejaVuSans-46"/>
       <use xlink:href="#DejaVuSans-6f" x="53.894531"/>
       <use xlink:href="#DejaVuSans-72" x="115.076172"/>
       <use xlink:href="#DejaVuSans-77" x="156.189453"/>
       <use xlink:href="#DejaVuSans-61" x="237.976562"/>
       <use xlink:href="#DejaVuSans-72" x="299.255859"/>
       <use xlink:href="#DejaVuSans-64" x="338.619141"/>
      </g>
     </g>
    </g>
    <g id="xtick_4">
     <g id="line2d_20">
      <g>
       <use xlink:href="#m7f14164ef3" x="552.785781" y="678.372938" style="stroke: #000000; stroke-width: 0.8"/>
      </g>
     </g>
     <g id="text_14">
      <!-- Backward -->
      <g transform="translate(499.030156 702.0895)scale(0.22 -0.22)">
       <defs>
        <path id="DejaVuSans-42" d="M 1259 2228 
L 1259 519 
L 2272 519 
Q 2781 519 3026 730 
Q 3272 941 3272 1375 
Q 3272 1813 3026 2020 
Q 2781 2228 2272 2228 
L 1259 2228 
z
M 1259 4147 
L 1259 2741 
L 2194 2741 
Q 2656 2741 2882 2914 
Q 3109 3088 3109 3444 
Q 3109 3797 2882 3972 
Q 2656 4147 2194 4147 
L 1259 4147 
z
M 628 4666 
L 2241 4666 
Q 2963 4666 3353 4366 
Q 3744 4066 3744 3513 
Q 3744 3084 3544 2831 
Q 3344 2578 2956 2516 
Q 3422 2416 3680 2098 
Q 3938 1781 3938 1306 
Q 3938 681 3513 340 
Q 3088 0 2303 0 
L 628 0 
L 628 4666 
z
" transform="scale(0.015625)"/>
        <path id="DejaVuSans-63" d="M 3122 3366 
L 3122 2828 
Q 2878 2963 2633 3030 
Q 2388 3097 2138 3097 
Q 1578 3097 1268 2742 
Q 959 2388 959 1747 
Q 959 1106 1268 751 
Q 1578 397 2138 397 
Q 2388 397 2633 464 
Q 2878 531 3122 666 
L 3122 134 
Q 2881 22 2623 -34 
Q 2366 -91 2075 -91 
Q 1284 -91 818 406 
Q 353 903 353 1747 
Q 353 2603 823 3093 
Q 1294 3584 2113 3584 
Q 2378 3584 2631 3529 
Q 2884 3475 3122 3366 
z
" transform="scale(0.015625)"/>
        <path id="DejaVuSans-6b" d="M 581 4863 
L 1159 4863 
L 1159 1991 
L 2875 3500 
L 3609 3500 
L 1753 1863 
L 3688 0 
L 2938 0 
L 1159 1709 
L 1159 0 
L 581 0 
L 581 4863 
z
" transform="scale(0.015625)"/>
       </defs>
       <use xlink:href="#DejaVuSans-42"/>
       <use xlink:href="#DejaVuSans-61" x="68.603516"/>
       <use xlink:href="#DejaVuSans-63" x="129.882812"/>
       <use xlink:href="#DejaVuSans-6b" x="184.863281"/>
       <use xlink:href="#DejaVuSans-77" x="242.773438"/>
       <use xlink:href="#DejaVuSans-61" x="324.560547"/>
       <use xlink:href="#DejaVuSans-72" x="385.839844"/>
       <use xlink:href="#DejaVuSans-64" x="425.203125"/>
      </g>
     </g>
    </g>
   </g>
   <g id="matplotlib.axis_4">
    <g id="ytick_9">
     <g id="line2d_21">
      <g>
       <use xlink:href="#me11de4e1f8" x="90.485781" y="656.871242" style="stroke: #000000; stroke-width: 0.8"/>
      </g>
     </g>
     <g id="text_15">
      <!-- −20 -->
      <g transform="translate(43.386875 664.089758)scale(0.19 -0.19)">
       <use xlink:href="#DejaVuSans-2212"/>
       <use xlink:href="#DejaVuSans-32" x="83.789062"/>
       <use xlink:href="#DejaVuSans-30" x="147.412109"/>
      </g>
     </g>
    </g>
    <g id="ytick_10">
     <g id="line2d_22">
      <g>
       <use xlink:href="#me11de4e1f8" x="90.485781" y="619.299579" style="stroke: #000000; stroke-width: 0.8"/>
      </g>
     </g>
     <g id="text_16">
      <!-- 0 -->
      <g transform="translate(71.397031 626.518095)scale(0.19 -0.19)">
       <use xlink:href="#DejaVuSans-30"/>
      </g>
     </g>
    </g>
    <g id="ytick_11">
     <g id="line2d_23">
      <g>
       <use xlink:href="#me11de4e1f8" x="90.485781" y="581.727917" style="stroke: #000000; stroke-width: 0.8"/>
      </g>
     </g>
     <g id="text_17">
      <!-- 20 -->
      <g transform="translate(59.308281 588.946433)scale(0.19 -0.19)">
       <use xlink:href="#DejaVuSans-32"/>
       <use xlink:href="#DejaVuSans-30" x="63.623047"/>
      </g>
     </g>
    </g>
    <g id="ytick_12">
     <g id="line2d_24">
      <g>
       <use xlink:href="#me11de4e1f8" x="90.485781" y="544.156254" style="stroke: #000000; stroke-width: 0.8"/>
      </g>
     </g>
     <g id="text_18">
      <!-- 40 -->
      <g transform="translate(59.308281 551.37477)scale(0.19 -0.19)">
       <use xlink:href="#DejaVuSans-34"/>
       <use xlink:href="#DejaVuSans-30" x="63.623047"/>
      </g>
     </g>
    </g>
    <g id="ytick_13">
     <g id="line2d_25">
      <g>
       <use xlink:href="#me11de4e1f8" x="90.485781" y="506.584592" style="stroke: #000000; stroke-width: 0.8"/>
      </g>
     </g>
     <g id="text_19">
      <!-- 60 -->
      <g transform="translate(59.308281 513.803108)scale(0.19 -0.19)">
       <use xlink:href="#DejaVuSans-36"/>
       <use xlink:href="#DejaVuSans-30" x="63.623047"/>
      </g>
     </g>
    </g>
    <g id="ytick_14">
     <g id="line2d_26">
      <g>
       <use xlink:href="#me11de4e1f8" x="90.485781" y="469.012929" style="stroke: #000000; stroke-width: 0.8"/>
      </g>
     </g>
     <g id="text_20">
      <!-- 80 -->
      <g transform="translate(59.308281 476.231445)scale(0.19 -0.19)">
       <use xlink:href="#DejaVuSans-38"/>
       <use xlink:href="#DejaVuSans-30" x="63.623047"/>
      </g>
     </g>
    </g>
    <g id="ytick_15">
     <g id="line2d_27">
      <g>
       <use xlink:href="#me11de4e1f8" x="90.485781" y="431.441267" style="stroke: #000000; stroke-width: 0.8"/>
      </g>
     </g>
     <g id="text_21">
      <!-- 100 -->
      <g transform="translate(47.219531 438.659783)scale(0.19 -0.19)">
       <use xlink:href="#DejaVuSans-31"/>
       <use xlink:href="#DejaVuSans-30" x="63.623047"/>
       <use xlink:href="#DejaVuSans-30" x="127.246094"/>
      </g>
     </g>
    </g>
    <g id="ytick_16">
     <g id="line2d_28">
      <g>
       <use xlink:href="#me11de4e1f8" x="90.485781" y="393.869604" style="stroke: #000000; stroke-width: 0.8"/>
      </g>
     </g>
     <g id="text_22">
      <!-- 120 -->
      <g transform="translate(47.219531 401.08812)scale(0.19 -0.19)">
       <use xlink:href="#DejaVuSans-31"/>
       <use xlink:href="#DejaVuSans-32" x="63.623047"/>
       <use xlink:href="#DejaVuSans-30" x="127.246094"/>
      </g>
     </g>
    </g>
    <g id="text_23">
     <!-- Beta -->
     <g transform="translate(34.811563 550.167535)rotate(-90)scale(0.22 -0.22)">
      <use xlink:href="#DejaVuSans-42"/>
      <use xlink:href="#DejaVuSans-65" x="68.603516"/>
      <use xlink:href="#DejaVuSans-74" x="130.126953"/>
      <use xlink:href="#DejaVuSans-61" x="169.335938"/>
     </g>
    </g>
   </g>
   <g id="line2d_29">
    <path d="M 182.945781 617.984454 
L 182.945781 572.311562 
" clip-path="url(#pb1e859a2e2)" style="fill: none; stroke: #3f3f3f; stroke-width: 1.5; stroke-linecap: square"/>
   </g>
   <g id="line2d_30">
    <path d="M 182.945781 597.286995 
L 182.945781 581.846738 
" clip-path="url(#pb1e859a2e2)" style="fill: none; stroke: #3f3f3f; stroke-width: 4.5; stroke-linecap: square"/>
   </g>
   <g id="line2d_31">
    <path d="M 306.225781 614.154522 
L 306.225781 579.349688 
" clip-path="url(#pb1e859a2e2)" style="fill: none; stroke: #3f3f3f; stroke-width: 1.5; stroke-linecap: square"/>
   </g>
   <g id="line2d_32">
    <path d="M 306.225781 605.900937 
L 306.225781 595.233135 
" clip-path="url(#pb1e859a2e2)" style="fill: none; stroke: #3f3f3f; stroke-width: 4.5; stroke-linecap: square"/>
   </g>
   <g id="line2d_33">
    <path d="M 491.145781 616.957822 
L 491.145781 512.110357 
" clip-path="url(#pb1e859a2e2)" style="fill: none; stroke: #3f3f3f; stroke-width: 1.5; stroke-linecap: square"/>
   </g>
   <g id="line2d_34">
    <path d="M 491.145781 599.544277 
L 491.145781 563.178801 
" clip-path="url(#pb1e859a2e2)" style="fill: none; stroke: #3f3f3f; stroke-width: 4.5; stroke-linecap: square"/>
   </g>
   <g id="line2d_35">
    <path d="M 614.425781 618.156303 
L 614.425781 566.873132 
" clip-path="url(#pb1e859a2e2)" style="fill: none; stroke: #3f3f3f; stroke-width: 1.5; stroke-linecap: square"/>
   </g>
   <g id="line2d_36">
    <path d="M 614.425781 607.579556 
L 614.425781 589.17323 
" clip-path="url(#pb1e859a2e2)" style="fill: none; stroke: #3f3f3f; stroke-width: 4.5; stroke-linecap: square"/>
   </g>
   <g id="patch_10">
    <path d="M 90.485781 678.372938 
L 90.485781 371.224633 
" style="fill: none; stroke: #000000; stroke-width: 1.5; stroke-linejoin: miter; stroke-linecap: square"/>
   </g>
   <g id="patch_11">
    <path d="M 90.485781 678.372938 
L 706.885781 678.372938 
" style="fill: none; stroke: #000000; stroke-width: 1.5; stroke-linejoin: miter; stroke-linecap: square"/>
   </g>
   <g id="PathCollection_5">
    <g clip-path="url(#pb1e859a2e2)">
     <use xlink:href="#m6d5802db30" x="182.945781" y="590.963868" style="fill: #ffffff; stroke: #3f3f3f"/>
    </g>
   </g>
   <g id="PathCollection_6">
    <g clip-path="url(#pb1e859a2e2)">
     <use xlink:href="#m6d5802db30" x="306.225781" y="600.561122" style="fill: #ffffff; stroke: #3f3f3f"/>
    </g>
   </g>
   <g id="PathCollection_7">
    <g clip-path="url(#pb1e859a2e2)">
     <use xlink:href="#m6d5802db30" x="491.145781" y="588.858079" style="fill: #ffffff; stroke: #3f3f3f"/>
    </g>
   </g>
   <g id="PathCollection_8">
    <g clip-path="url(#pb1e859a2e2)">
     <use xlink:href="#m6d5802db30" x="614.425781" y="599.345158" style="fill: #ffffff; stroke: #3f3f3f"/>
    </g>
   </g>
   <g id="text_24">
    <!-- B -->
    <g transform="translate(44.255781 375.083773)scale(0.3 -0.3)">
     <use xlink:href="#DejaVuSans-42"/>
    </g>
   </g>
   <g id="text_25">
    <!-- *** -->
    <g transform="translate(231.085781 390.126167)scale(0.18 -0.18)">
     <use xlink:href="#DejaVuSans-2a"/>
     <use xlink:href="#DejaVuSans-2a" x="50"/>
     <use xlink:href="#DejaVuSans-2a" x="100"/>
    </g>
   </g>
   <g id="text_26">
    <!-- ** -->
    <g transform="translate(543.785781 390.126167)scale(0.18 -0.18)">
     <use xlink:href="#DejaVuSans-2a"/>
     <use xlink:href="#DejaVuSans-2a" x="50"/>
    </g>
   </g>
   <g id="legend_1">
    <g id="patch_12">
     <path d="M 100.985781 670.872938 
L 286.038906 670.872938 
Q 289.038906 670.872938 289.038906 667.872938 
L 289.038906 624.433875 
Q 289.038906 621.433875 286.038906 621.433875 
L 100.985781 621.433875 
Q 97.985781 621.433875 97.985781 624.433875 
L 97.985781 667.872938 
Q 97.985781 670.872938 100.985781 670.872938 
z
" style="fill: #ffffff; opacity: 0.8; stroke: #cccccc; stroke-linejoin: miter"/>
    </g>
    <g id="patch_13">
     <path d="M 103.985781 640.858875 
L 118.985781 640.858875 
L 118.985781 627.433875 
L 103.985781 627.433875 
z
" style="fill: #332288; stroke: #000000; stroke-linejoin: miter"/>
    </g>
    <g id="patch_14">
     <path d="M 118.985781 640.858875 
L 133.985781 640.858875 
L 133.985781 627.433875 
L 118.985781 627.433875 
z
" style="fill: #882255; stroke: #000000; stroke-linejoin: miter"/>
    </g>
    <g id="text_27">
     <!-- Low-Variance(LV) -->
     <g transform="translate(145.985781 639.283875)scale(0.15 -0.15)">
      <defs>
       <path id="DejaVuSans-2d" d="M 313 2009 
L 1997 2009 
L 1997 1497 
L 313 1497 
L 313 2009 
z
" transform="scale(0.015625)"/>
       <path id="DejaVuSans-56" d="M 1831 0 
L 50 4666 
L 709 4666 
L 2188 738 
L 3669 4666 
L 4325 4666 
L 2547 0 
L 1831 0 
z
" transform="scale(0.015625)"/>
       <path id="DejaVuSans-28" d="M 1984 4856 
Q 1566 4138 1362 3434 
Q 1159 2731 1159 2009 
Q 1159 1288 1364 580 
Q 1569 -128 1984 -844 
L 1484 -844 
Q 1016 -109 783 600 
Q 550 1309 550 2009 
Q 550 2706 781 3412 
Q 1013 4119 1484 4856 
L 1984 4856 
z
" transform="scale(0.015625)"/>
       <path id="DejaVuSans-29" d="M 513 4856 
L 1013 4856 
Q 1481 4119 1714 3412 
Q 1947 2706 1947 2009 
Q 1947 1309 1714 600 
Q 1481 -109 1013 -844 
L 513 -844 
Q 928 -128 1133 580 
Q 1338 1288 1338 2009 
Q 1338 2731 1133 3434 
Q 928 4138 513 4856 
z
" transform="scale(0.015625)"/>
      </defs>
      <use xlink:href="#DejaVuSans-4c"/>
      <use xlink:href="#DejaVuSans-6f" x="53.962891"/>
      <use xlink:href="#DejaVuSans-77" x="115.144531"/>
      <use xlink:href="#DejaVuSans-2d" x="196.931641"/>
      <use xlink:href="#DejaVuSans-56" x="227.140625"/>
      <use xlink:href="#DejaVuSans-61" x="287.798828"/>
      <use xlink:href="#DejaVuSans-72" x="349.078125"/>
      <use xlink:href="#DejaVuSans-69" x="390.191406"/>
      <use xlink:href="#DejaVuSans-61" x="417.974609"/>
      <use xlink:href="#DejaVuSans-6e" x="479.253906"/>
      <use xlink:href="#DejaVuSans-63" x="542.632812"/>
      <use xlink:href="#DejaVuSans-65" x="597.613281"/>
      <use xlink:href="#DejaVuSans-28" x="659.136719"/>
      <use xlink:href="#DejaVuSans-4c" x="698.150391"/>
      <use xlink:href="#DejaVuSans-56" x="742.863281"/>
      <use xlink:href="#DejaVuSans-29" x="811.271484"/>
     </g>
    </g>
    <g id="patch_15">
     <path d="M 103.985781 663.328406 
L 118.985781 663.328406 
L 118.985781 649.903406 
L 103.985781 649.903406 
z
" style="fill: #88ccee; stroke: #000000; stroke-linejoin: miter"/>
    </g>
    <g id="patch_16">
     <path d="M 118.985781 663.328406 
L 133.985781 663.328406 
L 133.985781 649.903406 
L 118.985781 649.903406 
z
" style="fill: #cc6677; stroke: #000000; stroke-linejoin: miter"/>
    </g>
    <g id="text_28">
     <!-- High-Variance(HV) -->
     <g transform="translate(145.985781 661.753406)scale(0.15 -0.15)">
      <defs>
       <path id="DejaVuSans-48" d="M 628 4666 
L 1259 4666 
L 1259 2753 
L 3553 2753 
L 3553 4666 
L 4184 4666 
L 4184 0 
L 3553 0 
L 3553 2222 
L 1259 2222 
L 1259 0 
L 628 0 
L 628 4666 
z
" transform="scale(0.015625)"/>
       <path id="DejaVuSans-68" d="M 3513 2113 
L 3513 0 
L 2938 0 
L 2938 2094 
Q 2938 2591 2744 2837 
Q 2550 3084 2163 3084 
Q 1697 3084 1428 2787 
Q 1159 2491 1159 1978 
L 1159 0 
L 581 0 
L 581 4863 
L 1159 4863 
L 1159 2956 
Q 1366 3272 1645 3428 
Q 1925 3584 2291 3584 
Q 2894 3584 3203 3211 
Q 3513 2838 3513 2113 
z
" transform="scale(0.015625)"/>
      </defs>
      <use xlink:href="#DejaVuSans-48"/>
      <use xlink:href="#DejaVuSans-69" x="75.195312"/>
      <use xlink:href="#DejaVuSans-67" x="102.978516"/>
      <use xlink:href="#DejaVuSans-68" x="166.455078"/>
      <use xlink:href="#DejaVuSans-2d" x="229.833984"/>
      <use xlink:href="#DejaVuSans-56" x="260.042969"/>
      <use xlink:href="#DejaVuSans-61" x="320.701172"/>
      <use xlink:href="#DejaVuSans-72" x="381.980469"/>
      <use xlink:href="#DejaVuSans-69" x="423.09375"/>
      <use xlink:href="#DejaVuSans-61" x="450.876953"/>
      <use xlink:href="#DejaVuSans-6e" x="512.15625"/>
      <use xlink:href="#DejaVuSans-63" x="575.535156"/>
      <use xlink:href="#DejaVuSans-65" x="630.515625"/>
      <use xlink:href="#DejaVuSans-28" x="692.039062"/>
      <use xlink:href="#DejaVuSans-48" x="731.052734"/>
      <use xlink:href="#DejaVuSans-56" x="806.248047"/>
      <use xlink:href="#DejaVuSans-29" x="874.65625"/>
     </g>
    </g>
   </g>
  </g>
 </g>
 <defs>
  <clipPath id="p56446feb7f">
   <rect x="90.485781" y="29.880882" width="616.4" height="307.148305"/>
  </clipPath>
  <clipPath id="pb1e859a2e2">
   <rect x="90.485781" y="371.224633" width="616.4" height="307.148305"/>
  </clipPath>
 </defs>
</svg>
